<svg width="92" height="62" viewBox="0 0 92 62" fill="none" xmlns="http://www.w3.org/2000/svg">
<path d="M60.0061 40.5162L41.4062 8.22533L54.7683 0.55835L77.8976 40.5162H60.0061Z" fill="#F9F6F2"/>
<path d="M10.4688 35.9924L23.8313 28.2734L30.9009 40.5163H13.0616L10.4688 35.9924Z" fill="#F9F6F2"/>
<path d="M36.6953 61.1168H40.4983V45.7485H36.6953V61.1168Z" fill="#F9F6F2"/>
<path d="M84.3476 61.4796C80.0951 61.4796 77.5369 59.2864 77.3984 56.1956H81.4091C81.4091 57.1625 82.0141 58.5785 84.607 58.6306C86.3354 58.6306 87.1481 57.6116 87.1481 56.8519C87.0443 55.6432 85.5231 55.5393 83.8981 55.2804C82.2735 55.0215 80.8903 54.728 79.8879 54.2097C78.6086 53.5539 77.7441 52.1374 77.7441 50.5147C77.7441 47.7686 80.1297 45.593 84.1058 45.593C87.9604 45.593 90.3977 47.6136 90.6571 50.6181H86.7849C86.7503 49.8063 86.5948 48.5288 84.313 48.5288C82.7747 48.5288 81.7548 48.8394 81.6685 49.9101C81.6685 51.4816 84.8664 51.3778 87.3554 52.0341C89.741 52.6386 91.2622 54.1234 91.2622 56.1956C91.2622 60.012 88.1681 61.4796 84.3476 61.4796Z" fill="#F9F6F2"/>
<path d="M26.1328 22.2814L39.4949 14.58L54.4824 40.5162H40.4978V44.3151H36.6948V40.4992L26.1328 22.2814Z" fill="#F9F6F2"/>
<path fill-rule="evenodd" clip-rule="evenodd" d="M26.474 61.4795C22.0489 61.4795 18.4531 57.8704 18.4531 53.5016C18.4531 49.0811 22.0489 45.5929 26.474 45.5929C28.1507 45.5929 29.6719 46.042 31.0029 46.9572V40.5162H34.8059V61.1168H31.0029V60.0982C29.6719 60.9617 28.1507 61.4795 26.474 61.4795ZM22.1006 53.5016C22.1006 55.8849 24.1405 57.8704 26.5778 57.8704C28.9634 57.8704 31.0029 55.8849 31.0029 53.5016C31.0029 51.1188 28.9634 49.0811 26.5778 49.0811C24.1405 49.0811 22.1006 51.1188 22.1006 53.5016Z" fill="#F9F6F2"/>
<path fill-rule="evenodd" clip-rule="evenodd" d="M54.581 40.5162H58.3323V61.1168H54.581V60.0982C53.3021 60.9617 51.7288 61.4795 50.0004 61.4795C45.627 61.4795 42.0312 57.8704 42.0312 53.5016C42.0312 49.0811 45.627 45.5929 50.0004 45.5929C51.7288 45.5929 53.25 46.042 54.581 46.9572V40.5162ZM45.7308 53.5016C45.7308 55.8849 47.7703 57.8704 50.1042 57.8704C52.5415 57.8704 54.581 55.8849 54.581 53.5016C54.581 51.1188 52.5415 49.0811 50.1042 49.0811C47.7703 49.0811 45.7308 51.1188 45.7308 53.5016Z" fill="#F9F6F2"/>
<path fill-rule="evenodd" clip-rule="evenodd" d="M67.5859 61.4796C63.23 61.4796 59.6172 57.8705 59.6172 53.5017C59.6172 49.0812 63.23 45.593 67.5859 45.593C69.2626 45.593 70.8359 46.0421 72.1148 46.9573V45.7315H75.9178V61.1169H72.1148V60.0983C70.8359 60.9618 69.3147 61.4796 67.5859 61.4796ZM63.3163 53.5017C63.3163 55.885 65.3562 57.8705 67.7414 57.8705C70.127 57.8705 72.1148 55.885 72.1148 53.5017C72.1148 51.1189 70.127 49.0812 67.7414 49.0812C65.3562 49.0812 63.3163 51.1189 63.3163 53.5017Z" fill="#F9F6F2"/>
<path fill-rule="evenodd" clip-rule="evenodd" d="M4.46938 53.5017C4.46938 55.885 6.50913 57.8705 8.89475 57.8705C11.3321 57.8705 13.3715 55.885 13.3715 53.5017C13.3715 51.1189 11.3321 49.0812 8.89475 49.0812C6.50913 49.0812 4.46938 51.1189 4.46938 53.5017ZM8.79091 61.4796C4.4175 61.4796 0.804688 57.8705 0.804688 53.5017C0.804688 49.0812 4.4175 45.593 8.79091 45.593C10.4676 45.593 12.0405 46.0421 13.3715 46.9573V45.7315H17.1228V61.1169H13.3715V60.0983C12.0927 60.9618 10.5193 61.4796 8.79091 61.4796Z" fill="#F9F6F2"/>
</svg>
