<svg width="175" height="74" viewBox="0 0 175 74" fill="none" xmlns="http://www.w3.org/2000/svg">
<path d="M84.069 25.0015H78.2431L77.1318 27.6877H74.1562L79.7491 15.1509H82.6157L88.2247 27.6877H85.1736L84.069 25.0015ZM83.1537 22.7979L81.1639 17.9978L79.1695 22.7979H83.1537Z" fill="#F9F6F2"/>
<path d="M88.3125 26.7925L89.244 24.7864C90.1047 25.3418 91.4115 25.7171 92.5954 25.7171C93.8798 25.7171 94.3615 25.3768 94.3615 24.8412C94.3615 23.2634 88.5372 24.8762 88.5372 21.0246C88.5372 19.1984 90.1865 17.9081 92.9999 17.9081C94.3266 17.9081 95.7956 18.213 96.7094 18.7506L95.7778 20.739C94.9313 20.2601 93.9731 20.0127 92.9999 20.0217C91.7441 20.0217 91.2077 20.4165 91.2077 20.9171C91.2077 22.5653 97.0321 20.9717 97.0321 24.7686C97.0321 26.5596 95.3671 27.8307 92.4812 27.8307C90.8564 27.8307 89.2086 27.3829 88.3125 26.7925Z" fill="#F9F6F2"/>
<path d="M97.8203 26.7925L98.7513 24.7864C99.6125 25.3418 100.921 25.7171 102.103 25.7171C103.388 25.7171 103.869 25.3768 103.869 24.8412C103.869 23.2634 98.045 24.8762 98.045 21.0246C98.045 19.1984 99.6943 17.9081 102.508 17.9081C103.834 17.9081 105.305 18.213 106.217 18.7506L105.286 20.739C104.439 20.26 103.48 20.0125 102.508 20.0217C101.254 20.0217 100.716 20.4165 100.716 20.9171C100.716 22.5653 106.541 20.9717 106.541 24.7686C106.541 26.5596 104.874 27.8307 101.989 27.8307C100.364 27.8307 98.7164 27.3829 97.8203 26.7925Z" fill="#F9F6F2"/>
<path d="M117.979 18.052V27.6809H115.328V26.5351C114.951 26.9522 114.488 27.2826 113.971 27.504C113.454 27.7258 112.896 27.8328 112.333 27.8187C109.915 27.8187 108.211 26.4579 108.211 23.4859V18.052H111.009V23.0848C111.009 24.6898 111.724 25.4133 112.961 25.4133C114.246 25.4133 115.184 24.5885 115.184 22.8152V18.052H117.979Z" fill="#F9F6F2"/>
<path d="M126.565 17.9081V20.4886C126.332 20.4694 126.152 20.4517 125.937 20.4517C124.395 20.4517 123.368 21.2943 123.368 23.1382V27.6877H120.578V18.0589H123.249V19.33C123.929 18.3928 125.076 17.9081 126.565 17.9081Z" fill="#F9F6F2"/>
<path d="M136.7 22.1898V27.6877H134.087V26.4876C133.567 27.3656 132.564 27.8307 131.147 27.8307C128.889 27.8307 127.547 26.5774 127.547 24.9116C127.547 23.2105 128.746 22.0229 131.685 22.0229H133.908C133.908 20.8241 133.191 20.1244 131.685 20.1244C130.664 20.1244 129.607 20.4646 128.908 21.0199L127.903 19.0684C128.962 18.3158 130.521 17.9033 132.062 17.9033C134.998 17.9081 136.7 19.2706 136.7 22.1898ZM133.904 24.6433V23.6582H131.987C130.678 23.6582 130.267 24.1396 130.267 24.7817C130.267 25.4796 130.858 25.9452 131.844 25.9452C132.775 25.9499 133.583 25.5214 133.904 24.6433Z" fill="#F9F6F2"/>
<path d="M149.08 22.1717V27.6877H146.292V22.6018C146.292 21.0419 145.574 20.3262 144.338 20.3262C142.994 20.3262 142.025 21.1494 142.025 22.9228V27.6877H139.227V18.0585H141.897V19.1819C142.65 18.357 143.779 17.9093 145.086 17.9093C147.36 17.9077 149.08 19.2333 149.08 22.1717Z" fill="#F9F6F2"/>
<path d="M157.82 27.2221C157.246 27.6344 156.404 27.8302 155.543 27.8302C153.268 27.8302 151.942 26.6666 151.942 24.3734V20.416H150.453V18.2655H151.942V15.9193H154.738V18.2655H157.146V20.416H154.738V24.3379C154.738 25.1617 155.185 25.609 155.937 25.609C156.341 25.6127 156.734 25.4874 157.061 25.2515L157.82 27.2221Z" fill="#F9F6F2"/>
<path d="M159.055 15.1509C159.055 14.2731 159.753 13.5927 160.792 13.5927C161.832 13.5927 162.532 14.2346 162.532 15.0964C162.532 16.0272 161.833 16.7092 160.792 16.7092C159.752 16.7092 159.055 16.0272 159.055 15.1509ZM159.395 18.0525H162.189V27.6814H159.395V18.0525Z" fill="#F9F6F2"/>
<path d="M174.178 23.6584H166.884C167.152 24.859 168.168 25.584 169.644 25.584C170.665 25.584 171.399 25.2807 172.064 24.6533L173.551 26.2579C172.655 27.2806 171.303 27.8167 169.572 27.8167C166.238 27.8167 164.07 25.7224 164.07 22.8559C164.07 19.9897 166.273 17.8939 169.209 17.8939C172.04 17.8939 174.227 19.7924 174.227 22.8913C174.232 23.1208 174.196 23.4257 174.178 23.6584ZM166.845 22.0279H171.594C171.396 20.8098 170.484 20.0218 169.228 20.0218C167.973 20.0218 167.046 20.7922 166.845 22.0279Z" fill="#F9F6F2"/>
<path d="M74.8203 41.9783L75.8045 39.7937C77.0227 40.6341 78.4646 41.0888 79.9446 41.1003C81.6659 41.1003 82.3644 40.5271 82.3644 39.7571C82.3644 37.4107 75.0711 39.0237 75.0711 34.3663C75.0711 32.2349 76.7908 30.4617 80.3574 30.4617C81.9343 30.4617 83.5477 30.8375 84.7122 31.5725L83.8162 33.7759C82.7621 33.1521 81.5642 32.8133 80.3397 32.7919C78.6179 32.7919 77.9564 33.434 77.9564 34.2254C77.9564 36.5348 85.2502 34.9411 85.2502 39.5436C85.2502 41.6395 83.5112 43.4305 79.9268 43.4305C77.9371 43.429 75.9301 42.838 74.8203 41.9783Z" fill="#F9F6F2"/>
<path d="M96.4286 39.1829H89.1353C89.4032 40.3836 90.4197 41.1185 91.8955 41.1185C92.9167 41.1185 93.6506 40.8137 94.3153 40.1862L95.8025 41.7909C94.9064 42.8114 93.5542 43.3475 91.823 43.3475C88.4894 43.3475 86.3203 41.2611 86.3203 38.3869C86.3203 35.5127 88.5248 33.4246 91.4586 33.4246C94.2897 33.4246 96.4771 35.3232 96.4771 38.4224C96.4833 38.6453 96.4479 38.9501 96.4286 39.1829ZM89.0998 37.5527H93.8482C93.6506 36.3343 92.7384 35.5466 91.4826 35.5466C90.2268 35.5466 89.2974 36.3218 89.0998 37.5527Z" fill="#F9F6F2"/>
<path d="M104.33 33.4329V36.0137C104.098 35.9944 103.919 35.9767 103.704 35.9767C102.163 35.9767 101.135 36.8192 101.135 38.6635V43.2128H98.3438V33.5838H101.011V34.8549C101.695 33.9147 102.843 33.4329 104.33 33.4329Z" fill="#F9F6F2"/>
<path d="M115.902 33.577L111.833 43.2061H108.942L104.891 33.577H107.781L110.452 40.133L113.212 33.577H115.902Z" fill="#F9F6F2"/>
<path d="M116.703 30.6762C116.703 29.7982 117.402 29.1175 118.441 29.1175C119.48 29.1175 120.18 29.7596 120.18 30.6214C120.18 31.5522 119.482 32.2344 118.441 32.2344C117.4 32.2344 116.703 31.5522 116.703 30.6762ZM117.044 33.5776H119.84V43.2066H117.044V33.5776Z" fill="#F9F6F2"/>
<path d="M121.727 38.3952C121.727 35.4938 123.965 33.4329 127.103 33.4329C129.128 33.4329 130.722 34.3109 131.422 35.8869L129.253 37.052C128.733 36.139 127.968 35.7266 127.085 35.7266C125.669 35.7266 124.557 36.7117 124.557 38.3952C124.557 40.0787 125.669 41.0642 127.085 41.0642C127.962 41.0642 128.733 40.669 129.253 39.7383L131.422 40.9212C130.722 42.4601 129.128 43.3558 127.103 43.3558C123.963 43.3558 121.727 41.297 121.727 38.3952Z" fill="#F9F6F2"/>
<path d="M142.286 39.1829H134.993C135.261 40.3836 136.278 41.1185 137.752 41.1185C138.774 41.1185 139.508 40.8137 140.172 40.1862L141.659 41.7909C140.764 42.8114 139.418 43.3475 137.681 43.3475C134.347 43.3475 132.18 41.2611 132.18 38.3869C132.18 35.5127 134.383 33.4246 137.318 33.4246C140.149 33.4246 142.336 35.3232 142.336 38.4224C142.341 38.6453 142.304 38.9501 142.286 39.1829ZM134.956 37.5527H139.704C139.507 36.3343 138.593 35.5466 137.337 35.5466C136.082 35.5466 135.154 36.3218 134.956 37.5527Z" fill="#F9F6F2"/>
<path d="M75.8047 46.2009H81.5039C85.6085 46.2009 88.4219 48.6726 88.4219 52.4697C88.4219 56.2663 85.6085 58.738 81.5039 58.738H75.8047V46.2009ZM81.3611 56.3566C83.8518 56.3566 85.4834 54.8704 85.4834 52.4697C85.4834 50.0685 83.8518 48.5828 81.3611 48.5828H78.7083V56.3566H81.3611Z" fill="#F9F6F2"/>
<path d="M96.388 48.9597V51.5384C96.155 51.5206 95.9767 51.5013 95.7614 51.5013C94.2184 51.5013 93.192 52.3439 93.192 54.1881V58.7375H90.4062V49.1084H93.0716V50.3795C93.7524 49.4425 94.9023 48.9597 96.388 48.9597Z" fill="#F9F6F2"/>
<path d="M107.359 54.708H100.065C100.333 55.9082 101.35 56.6431 102.826 56.6431C103.847 56.6431 104.581 56.3383 105.244 55.7108L106.732 57.3238C105.837 58.3444 104.484 58.8821 102.753 58.8821C99.4196 58.8821 97.25 56.7862 97.25 53.9198C97.25 51.054 99.455 48.9597 102.389 48.9597C105.22 48.9597 107.407 50.8561 107.407 53.9553C107.414 54.1704 107.377 54.4752 107.359 54.708ZM100.028 53.0788H104.778C104.581 51.861 103.667 51.0728 102.413 51.0728C101.159 51.0728 100.226 51.8417 100.028 53.0788Z" fill="#F9F6F2"/>
<path d="M119.122 53.2224V58.738H116.328V53.6541C116.328 52.0954 115.61 51.3781 114.374 51.3781C113.029 51.3781 112.061 52.2029 112.061 53.9767V58.7395H109.266V49.1105H111.936V50.2339C112.689 49.4107 113.818 48.9628 115.127 48.9628C117.402 48.9596 119.122 50.284 119.122 53.2224Z" fill="#F9F6F2"/>
<path d="M127.866 58.2729C127.292 58.6853 126.449 58.8826 125.589 58.8826C123.313 58.8826 121.987 57.718 121.987 55.4258V51.4669H120.5V49.3214H121.987V46.9719H124.783V49.3214H127.191V51.47H124.783V55.3924C124.783 56.2172 125.232 56.6651 125.984 56.6651C126.387 56.6688 126.781 56.5429 127.108 56.307L127.866 58.2729Z" fill="#F9F6F2"/>
<path d="M139.296 53.2219V58.7375H136.494V53.6536C136.494 52.0954 135.777 51.3782 134.541 51.3782C133.195 51.3782 132.228 52.203 132.228 53.9762V58.7391H129.438V45.4481H132.235V50.1024C132.986 49.3496 134.062 48.956 135.299 48.956C137.576 48.9597 139.296 50.2835 139.296 53.2219Z" fill="#F9F6F2"/>
<path d="M151.318 54.708H144.024C144.293 55.9082 145.309 56.6431 146.785 56.6431C147.806 56.6431 148.54 56.3383 149.203 55.7108L150.692 57.3238C149.795 58.3444 148.444 58.8821 146.713 58.8821C143.379 58.8821 141.211 56.7862 141.211 53.9198C141.211 51.054 143.414 48.9597 146.35 48.9597C149.181 48.9597 151.368 50.8561 151.368 53.9553C151.373 54.1704 151.336 54.4752 151.318 54.708ZM143.987 53.0788H148.737C148.54 51.861 147.626 51.0728 146.372 51.0728C145.118 51.0728 144.185 51.8417 143.987 53.0788Z" fill="#F9F6F2"/>
<path d="M64.9593 5.59445V17.499L48.9297 12.1598V0.373962L64.9593 5.59445Z" fill="#F9F6F2"/>
<path d="M64.9715 29.2866V33.0921C64.9715 53.3686 54.3315 54.7138 42.8001 64.0651L32.8873 72.1036L22.9987 64.0651C11.4673 54.7138 0.804688 53.3931 0.804688 33.0921V17.3646L32.8873 6.92682L48.9294 12.1601V23.9459L32.8873 18.5939V58.3517L36.0651 55.7406C49.3584 44.9882 54.2783 46.1967 54.2783 33.0921V25.7307L64.9715 29.2866Z" fill="#F9F6F2"/>
<path d="M81.0539 68.5289C81.0539 69.718 80.1916 70.4399 78.7654 70.4399H77.4085V72.0994H76.625V66.6172H78.7654C80.1916 66.6172 81.0539 67.3376 81.0539 68.5289ZM80.2704 68.5289C80.2704 67.7453 79.7449 67.298 78.7414 67.298H77.4085V69.7577H78.7414C79.7449 69.7577 80.2704 69.3119 80.2704 68.5289Z" fill="#F9F6F2"/>
<path d="M85.8208 70.2761H82.4486C82.5414 71.0043 83.1294 71.4893 83.953 71.4893C84.1772 71.4976 84.4003 71.4569 84.6072 71.3702C84.8142 71.2841 84.9997 71.1536 85.1509 70.9886L85.5669 71.4699C85.1911 71.9079 84.6176 72.1423 83.929 72.1423C82.5883 72.1423 81.6953 71.258 81.6953 70.0208C81.6953 68.7831 82.5799 67.9056 83.7831 67.9056C84.9857 67.9056 85.8369 68.7675 85.8369 70.0448C85.8369 70.1106 85.8286 70.2051 85.8208 70.2761ZM85.1108 69.7353C85.0733 69.4085 84.9163 69.1068 84.6708 68.8881C84.4253 68.6693 84.1078 68.5488 83.7789 68.5488C83.45 68.5488 83.1325 68.6693 82.8864 68.8881C82.6409 69.1068 82.4845 69.4085 82.447 69.7353H85.1108Z" fill="#F9F6F2"/>
<path d="M89.1103 67.9103V68.639C89.0529 68.6322 88.9951 68.6296 88.9367 68.6307C88.1339 68.6307 87.6283 69.125 87.6283 70.0333V72.1005H86.875V67.9505H87.5959V68.6468C87.8644 68.1608 88.3815 67.9103 89.1103 67.9103Z" fill="#F9F6F2"/>
<path d="M89.5391 71.6615L89.8602 71.0664C90.2934 71.3477 90.7995 71.497 91.3167 71.4965C92.0152 71.4965 92.304 71.2862 92.304 70.9328C92.304 70.0004 89.6788 70.808 89.6788 69.1548C89.6788 68.4104 90.345 67.9093 91.411 67.9093C91.9396 67.9009 92.4609 68.0304 92.9238 68.2851L92.6027 68.8802C92.2435 68.6563 91.8265 68.5419 91.4032 68.5513C90.7448 68.5513 90.4237 68.7956 90.4237 69.1245C90.4237 70.1033 93.0572 69.3041 93.0572 70.9171C93.0572 71.6698 92.3665 72.1464 91.2619 72.1464C90.5665 72.1464 89.8842 71.9361 89.5391 71.6615Z" fill="#F9F6F2"/>
<path d="M93.6094 70.0228C93.6094 68.7857 94.5263 67.9077 95.7722 67.9077C97.0186 67.9077 97.9272 68.7857 97.9272 70.0228C97.9272 71.2605 97.0186 72.1448 95.7722 72.1448C94.5263 72.1448 93.6094 71.2621 93.6094 70.0228ZM97.1677 70.0228C97.1677 69.137 96.5718 68.5659 95.7722 68.5659C94.9725 68.5659 94.3704 69.137 94.3704 70.0228C94.3704 70.9087 94.9725 71.4866 95.7722 71.4866C96.5718 71.4866 97.1677 70.9087 97.1677 70.0228Z" fill="#F9F6F2"/>
<path d="M98.5859 70.0228C98.5859 68.7857 99.5024 67.9077 100.749 67.9077C101.995 67.9077 102.904 68.7857 102.904 70.0228C102.904 71.2605 101.995 72.1448 100.749 72.1448C99.5024 72.1448 98.5859 71.2621 98.5859 70.0228ZM102.144 70.0228C102.144 69.137 101.548 68.5659 100.749 68.5659C99.9491 68.5659 99.347 69.137 99.347 70.0228C99.347 70.9087 99.9491 71.4866 100.749 71.4866C101.548 71.4866 102.144 70.9087 102.144 70.0228Z" fill="#F9F6F2"/>
<path d="M107.888 69.7117V72.0994H107.136V69.7968C107.136 68.983 106.728 68.5836 106.012 68.5836C105.209 68.5836 104.695 69.0649 104.695 69.9618V72.0994H103.945V67.9494H104.668V68.5784C104.973 68.1551 105.506 67.9129 106.164 67.9129C107.175 67.9092 107.888 68.4886 107.888 69.7117Z" fill="#F9F6F2"/>
<path d="M109.281 66.2889H110.035V72.1H109.281V66.2889Z" fill="#F9F6F2"/>
<path d="M111.336 66.6647C111.336 66.5984 111.349 66.5332 111.376 66.4726C111.401 66.4121 111.439 66.3567 111.487 66.3108C111.534 66.2649 111.59 66.2288 111.652 66.2054C111.713 66.1813 111.779 66.1699 111.845 66.1719C111.91 66.1683 111.976 66.1782 112.038 66.2007C112.1 66.2231 112.156 66.2581 112.203 66.303C112.251 66.3479 112.289 66.4022 112.315 66.4627C112.341 66.5227 112.354 66.588 112.354 66.6532C112.355 66.7201 112.343 66.7864 112.319 66.8485C112.294 66.9106 112.257 66.9675 112.211 67.0155C112.117 67.1126 111.988 67.1679 111.853 67.17C111.718 67.1721 111.588 67.121 111.491 67.027C111.394 66.933 111.338 66.8046 111.336 66.6694V66.6647ZM111.469 67.9483H112.221V72.0983H111.469V67.9483Z" fill="#F9F6F2"/>
<path d="M112.227 73.4159L112.471 72.8365C112.645 72.9707 112.86 73.0401 113.08 73.0328C113.48 73.0328 113.701 72.7822 113.701 72.304V67.9499H114.452V72.2832C114.452 73.1288 113.982 73.6618 113.127 73.6618C112.808 73.679 112.492 73.5929 112.227 73.4159ZM113.567 66.6647C113.567 66.5985 113.581 66.5332 113.607 66.4727C113.632 66.4116 113.671 66.3568 113.718 66.3108C113.765 66.2649 113.821 66.2289 113.883 66.2054C113.945 66.1814 114.01 66.1699 114.076 66.172C114.142 66.1683 114.207 66.1777 114.269 66.2007C114.33 66.2231 114.387 66.2576 114.435 66.303C114.482 66.3479 114.52 66.4022 114.546 66.4627C114.572 66.5228 114.585 66.588 114.585 66.6533C114.587 66.7885 114.536 66.9184 114.442 67.0155C114.348 67.1121 114.219 67.168 114.084 67.1701C113.949 67.1721 113.819 67.1205 113.722 67.027C113.625 66.9331 113.569 66.8041 113.567 66.6694V66.6647Z" fill="#F9F6F2"/>
<path d="M117.498 70.1664L116.636 70.9688V72.1047H115.883V66.2889H116.636V70.0234L118.901 67.9562H119.809L118.062 69.6637L119.989 72.1H119.058L117.498 70.1664Z" fill="#F9F6F2"/>
<path d="M126.944 72.1861L126.222 71.4573C125.728 71.9261 125.068 72.1793 124.388 72.1621C123.275 72.1621 122.461 71.5748 122.461 70.737C122.461 70.0631 122.845 69.5927 123.793 69.0535C123.299 68.5591 123.135 68.2078 123.135 67.8001C123.135 67.0636 123.715 66.5708 124.616 66.5708C125.447 66.5708 125.979 67.0009 125.979 67.7135C125.979 68.2705 125.658 68.6766 124.811 69.1464L126.167 70.4948C126.329 70.1821 126.443 69.8464 126.504 69.4998L127.108 69.6956C127.028 70.1398 126.864 70.5652 126.626 70.9489L127.363 71.6839L126.944 72.1861ZM125.769 71.0194L124.208 69.4674C123.44 69.8991 123.198 70.2202 123.198 70.6582C123.198 71.1833 123.691 71.5362 124.428 71.5362C124.674 71.5424 124.92 71.5002 125.15 71.4114C125.38 71.3232 125.59 71.1896 125.769 71.0194ZM123.832 67.784C123.832 68.0664 123.943 68.2658 124.389 68.7246C125.11 68.3169 125.345 68.0664 125.345 67.7213C125.345 67.3763 125.086 67.1184 124.616 67.1184C124.145 67.1184 123.832 67.3924 123.832 67.784Z" fill="#F9F6F2"/>
<path d="M135.132 70.6195C135.132 71.5586 134.417 72.0994 133.031 72.0994H130.414V66.6172H132.874C134.136 66.6172 134.841 67.1502 134.841 68.0345C134.851 68.2877 134.787 68.5388 134.656 68.7559C134.524 68.9731 134.333 69.1474 134.104 69.2571C134.409 69.327 134.679 69.5019 134.867 69.7509C135.055 70.0004 135.149 70.3079 135.132 70.6195ZM131.198 67.2494V69.0039H132.803C133.606 69.0039 134.057 68.7069 134.057 68.1274C134.057 67.548 133.603 67.2494 132.803 67.2494H131.198ZM134.34 70.5553C134.34 69.9138 133.87 69.6392 132.999 69.6392H131.198V71.4673H132.999C133.87 71.4673 134.34 71.1911 134.34 70.5569V70.5553Z" fill="#F9F6F2"/>
<path d="M139.975 70.2761H136.603C136.698 71.0043 137.286 71.4893 138.108 71.4893C138.332 71.4976 138.555 71.4569 138.763 71.3708C138.97 71.2841 139.156 71.1536 139.308 70.9886L139.722 71.4699C139.346 71.9079 138.774 72.1423 138.085 72.1423C136.745 72.1423 135.852 71.258 135.852 70.0208C135.852 68.7831 136.737 67.9056 137.939 67.9056C139.142 67.9056 139.992 68.7675 139.992 70.0448C139.99 70.1106 139.984 70.2051 139.975 70.2761ZM136.603 69.7353H139.268C139.23 69.4085 139.073 69.1068 138.828 68.8881C138.582 68.6693 138.265 68.5488 137.935 68.5488C137.606 68.5488 137.289 68.6693 137.043 68.8881C136.798 69.1068 136.641 69.4085 136.603 69.7353Z" fill="#F9F6F2"/>
<path d="M143.368 71.8583C143.108 72.0561 142.787 72.1584 142.46 72.1469C141.621 72.1469 141.143 71.6849 141.143 70.8471V68.568H140.438V67.9505H141.143V67.0422H141.894V67.9505H143.081V68.568H141.889V70.8147C141.889 71.2611 142.125 71.5111 142.541 71.5111C142.754 71.5132 142.961 71.4443 143.129 71.3154L143.368 71.8583Z" fill="#F9F6F2"/>
<path d="M146.507 67.9103V68.639C146.45 68.6322 146.393 68.6296 146.336 68.6307C145.532 68.6307 145.027 69.125 145.027 70.0333V72.1005H144.273V67.9505H144.994V68.6468C145.261 68.1608 145.778 67.9103 146.507 67.9103Z" fill="#F9F6F2"/>
<path d="M147.008 70.0228C147.008 68.7857 147.925 67.9077 149.171 67.9077C150.417 67.9077 151.326 68.7857 151.326 70.0228C151.326 71.2605 150.417 72.1448 149.171 72.1448C147.925 72.1448 147.008 71.2621 147.008 70.0228ZM150.566 70.0228C150.566 69.137 149.971 68.5659 149.171 68.5659C148.371 68.5659 147.769 69.137 147.769 70.0228C147.769 70.9087 148.371 71.4866 149.171 71.4866C149.971 71.4866 150.566 70.9087 150.566 70.0228Z" fill="#F9F6F2"/>
<path d="M153.99 70.1664L153.128 70.9688V72.1047H152.375V66.2889H153.128V70.0234L155.392 67.9562H156.303L154.554 69.6705L156.481 72.1068H155.556L153.99 70.1664Z" fill="#F9F6F2"/>
<path d="M158.817 70.1664L157.954 70.9688V72.1047H157.203V66.2889H157.954V70.0234L160.22 67.9562H161.129L159.379 69.6637L161.306 72.1H160.381L158.817 70.1664Z" fill="#F9F6F2"/>
<path d="M165.592 70.2761H162.22C162.315 71.0043 162.903 71.4893 163.725 71.4893C163.949 71.4976 164.173 71.4569 164.38 71.3708C164.587 71.2841 164.773 71.1536 164.924 70.9886L165.34 71.4699C164.963 71.9079 164.391 72.1423 163.702 72.1423C162.362 72.1423 161.469 71.258 161.469 70.0208C161.469 68.7831 162.353 67.9056 163.556 67.9056C164.759 67.9056 165.61 68.7675 165.61 70.0448C165.608 70.1106 165.6 70.2051 165.592 70.2761ZM162.22 69.7353H164.886C164.85 69.4069 164.694 69.1037 164.448 68.8834C164.202 68.6631 163.883 68.5415 163.553 68.5415C163.223 68.5415 162.904 68.6631 162.658 68.8834C162.412 69.1037 162.256 69.4069 162.22 69.7353Z" fill="#F9F6F2"/>
<path d="M170.592 69.7117V72.0994H169.841V69.7968C169.841 68.983 169.433 68.5836 168.717 68.5836C167.914 68.5836 167.4 69.0649 167.4 69.9618V72.0994H166.648V67.9494H167.37V68.5784C167.675 68.1551 168.208 67.9129 168.867 67.9129C169.879 67.9092 170.592 68.4886 170.592 69.7117Z" fill="#F9F6F2"/>
</svg>
