<svg width="165" height="75" viewBox="0 0 165 75" fill="none" xmlns="http://www.w3.org/2000/svg">
<g clip-path="url(#clip0_193_1029)">
<path d="M62.3977 0.0189929C62.8837 0.0656465 63.3689 0.126779 63.8557 0.15815C68.8295 0.479095 73.6617 1.53363 78.408 3.02896C83.626 4.6723 88.6404 6.82319 93.5386 9.26205C94.0636 9.52348 94.5854 9.79053 95.0897 10.1436C94.4104 10.1967 93.7215 10.1943 93.055 10.3174C92.4011 10.4389 91.8881 10.2072 91.336 9.92808C87.8028 8.14237 84.1884 6.54327 80.457 5.2249C76.9237 3.97732 73.3268 2.97909 69.6369 2.32272C66.4472 1.75564 63.2361 1.45078 59.9995 1.4733C54.3543 1.51191 48.885 2.56725 43.5628 4.44788C39.7798 5.78475 36.1534 7.49243 32.5159 9.17438C32.1007 9.36662 31.6847 9.55806 31.2266 9.66987C31.7603 9.34651 32.2924 9.01994 32.8285 8.6998C36.75 6.35907 40.7939 4.27735 45.1028 2.75306C48.4571 1.56661 51.8893 0.724429 55.4274 0.347982C56.3875 0.245826 57.3523 0.185498 58.3148 0.101039C58.4842 0.0865603 58.6512 0.0463416 58.8199 0.0181885C60.0122 0.0181885 61.2053 0.0181885 62.3977 0.0181885V0.0189929Z" fill="#F9F6F2"/>
<path d="M22.9639 58.5822C19.9938 60.4339 17.2551 62.5615 14.8203 65.1395C15.1027 64.3922 17.4961 61.6429 20.1528 59.1767C22.1088 57.3604 24.1642 55.6535 26.175 53.8976L26.1289 53.797C24.7297 54.5049 23.3131 55.1797 21.9362 55.9302C20.5569 56.6815 19.2182 57.5084 17.8533 58.2886C23.7569 53.3514 30.4472 49.7213 37.4358 46.3767C36.2006 46.0396 35.1991 45.5023 34.3265 44.7261C32.7428 43.3168 31.7493 41.5279 31.0693 39.5403C30.1466 36.844 29.9008 34.0665 30.1092 31.2351C30.3955 27.342 31.4717 23.707 33.6234 20.4396C34.8658 18.5526 36.3978 16.9583 38.4683 15.9882C40.5762 15.0004 42.6817 14.9787 44.7633 16.0872C44.8572 16.137 44.9478 16.1909 45.0401 16.2432C45.0743 16.2625 45.1077 16.2818 45.1085 16.3566C44.7673 16.2939 44.4276 16.2207 44.0856 16.1708C42.9108 15.9979 41.8003 16.244 40.7217 16.7017C40.5316 16.7821 40.4107 16.8666 40.4545 17.1111C40.8745 19.4494 41.2857 21.7886 41.7009 24.1277C41.7121 24.1912 41.7319 24.2532 41.8481 24.336C42.5226 21.8642 43.1979 19.3923 43.8724 16.9205C43.8979 16.9261 43.9241 16.9317 43.9496 16.9382C43.5503 19.6763 43.1518 22.4136 42.7533 25.1468C42.408 25.0632 42.0954 24.9385 41.7781 24.9248C41.4575 24.9103 41.1322 25.0061 40.748 25.0632C40.6199 22.3886 40.4903 19.6883 40.3574 16.9205C40.192 16.9969 40.0639 17.0291 39.9677 17.1039C39.2248 17.6806 38.4882 18.2654 37.7508 18.8494C37.5719 18.9909 37.5512 19.1381 37.6435 19.3698C38.4214 21.3108 39.1731 23.2622 39.9502 25.2023C40.0719 25.5056 40.0059 25.6785 39.8213 25.9407C39.4268 26.5022 39.119 27.1248 38.7777 27.724C38.7332 27.8021 38.7038 27.8889 38.6393 28.0345C37.3706 26.4242 36.1321 24.8524 34.8444 23.2163C34.1484 24.6594 33.7061 26.1185 33.3672 27.6734C33.9527 27.8342 34.5198 27.9943 35.0901 28.1447C36.0733 28.4053 37.0556 28.6692 38.0428 28.9113C38.349 28.9861 38.3649 29.1084 38.3331 29.4132C38.2488 30.2216 38.2265 31.0389 38.2225 31.8521C38.2209 32.1376 38.1907 32.2647 37.8797 32.3403C36.3397 32.7144 34.807 33.119 33.275 33.5284C33.1557 33.5606 32.9719 33.7094 32.9759 33.7971C33.0435 35.3246 33.3513 36.8054 33.8676 38.3209C35.3948 36.5971 36.8767 34.9256 38.4015 33.205C38.458 33.3458 38.4874 33.4536 38.5407 33.5485C38.866 34.1228 39.1762 34.7076 39.5366 35.2586C39.6527 35.4356 39.667 35.5369 39.5803 35.7131C38.5208 37.8624 37.47 40.0173 36.4082 42.165C36.3175 42.3476 36.2992 42.4586 36.4591 42.6122C37.1853 43.3128 37.9982 43.8686 39.0331 44.2435C39.4459 41.4161 39.8547 38.6161 40.2676 35.7895C40.9437 35.9592 41.5569 35.8989 42.1893 35.4589C42.3293 38.3635 42.4653 41.1812 42.6045 44.0673C43.5741 43.6603 44.4722 43.2879 45.3654 42.9026C45.4673 42.8583 45.5317 42.7337 45.6279 42.6661C45.7202 42.6009 45.8164 42.3701 45.9469 42.6428C45.9549 42.6605 46.0869 42.6307 46.1537 42.6041C51.0806 40.6069 56.0806 38.8155 61.1435 37.206C62.969 36.626 64.8088 36.0919 66.6303 35.5007C67.3407 35.2699 68.0009 34.8749 68.7167 34.6722C69.5201 34.4446 70.3688 34.3883 71.1818 34.1904C73.0295 33.7424 74.8582 33.2083 76.7132 32.7916C80.3737 31.9687 84.039 31.1659 87.7171 30.4275C89.5943 30.0503 91.4961 29.7679 93.3996 29.5604C94.712 29.4172 96.046 29.4776 97.3711 29.4478C97.5286 29.4446 97.6869 29.4478 97.8627 29.3714C97.6949 29.3062 97.5263 29.2419 97.3139 29.1598C98.3591 28.8855 99.3653 28.8453 100.386 28.8646C101.138 28.8791 101.893 28.7697 102.647 28.7585C103.939 28.7392 105.232 28.7528 106.526 28.7681C95.3492 29.5934 84.3397 31.429 73.5028 34.4221C73.8719 34.5266 74.2465 34.6143 74.6085 34.7382C76.9359 35.5313 78.4663 37.0982 79.1185 39.5105C79.249 39.9923 79.1583 40.117 78.6691 40.117C77.8339 40.1178 76.9995 40.1146 76.1643 40.1194C75.9344 40.121 75.7698 40.0478 75.7563 39.7961C75.7435 39.5604 75.7085 39.3207 76.0378 39.2266C76.5684 39.0754 76.6511 38.7512 76.2924 38.2911C75.6481 37.4618 74.8304 36.8537 73.8313 36.5665C71.6853 35.9504 69.6068 36.0364 67.7495 37.4449C66.593 38.3217 65.9351 39.5491 65.6726 40.9656C65.3919 42.4771 65.4332 43.9989 65.986 45.4468C66.8157 47.6226 68.3485 48.9306 70.6989 49.2129C72.2413 49.3979 73.6897 49.2459 75.0046 48.3401C75.7046 47.8583 76.2701 47.2534 76.6599 46.4925C76.8889 46.0453 76.8237 45.9093 76.3401 45.8192C75.9734 45.7509 75.9758 45.4919 75.9925 45.2119C76.0084 44.9392 76.1699 44.8564 76.4181 44.858C77.2 44.8628 77.9819 44.858 78.7638 44.8604C79.2267 44.8604 79.3595 45.0157 79.2458 45.4669C78.619 47.9436 77.2501 49.8121 74.8002 50.6592C72.1792 51.5657 69.5678 51.5448 67.1187 50.0824C65.1326 48.8968 64.0206 47.0628 63.587 44.7937C63.2339 42.946 63.2466 41.104 63.9227 39.3368C64.2313 38.53 64.7468 37.8044 65.1699 37.0427C65.2049 36.98 65.2519 36.9229 65.3489 36.7829C64.0651 37.2237 62.8648 37.6202 61.674 38.0466C55.4037 40.294 49.2909 42.9082 43.4055 46.0525C37.9449 48.97 32.7285 52.2671 27.9599 56.2512C24.7957 58.8951 21.8797 61.7844 19.5205 65.2063C19.4147 65.3599 19.3097 65.5127 19.2023 65.6656C19.1967 65.6736 19.1769 65.6712 19.091 65.6857C19.8021 62.9677 21.4844 60.8361 22.9623 58.5822H22.9639ZM38.6441 35.0197C38.5264 35.0591 38.4707 35.0639 38.4317 35.0921C37.0095 36.133 35.5928 37.1819 34.1651 38.2147C33.9344 38.382 33.897 38.5316 34.0219 38.7794C34.1706 39.0754 34.2732 39.3947 34.4196 39.6915C34.8841 40.6358 35.4234 41.5295 36.2196 42.3612C37.0334 39.8974 37.8264 37.4964 38.6441 35.0197ZM37.7914 30.6294C36.2586 29.6706 34.8181 28.7697 33.3299 27.8383C32.9417 29.7221 32.8176 31.5424 32.9218 33.4914C34.5691 32.5229 36.1353 31.6035 37.7914 30.6294ZM41.2276 36.9333C41.1513 36.9719 41.1131 36.9792 41.1083 36.9961C40.4616 39.3601 39.8158 41.725 39.1818 44.093C39.1635 44.1622 39.2661 44.3319 39.3361 44.348C40.3089 44.5668 41.2817 44.7518 42.237 44.2491C42.424 44.151 42.4844 44.0657 42.447 43.8541C42.1161 41.988 41.7956 40.1202 41.4702 38.2533C41.3947 37.8181 41.3096 37.3838 41.226 36.9341L41.2276 36.9333ZM37.4518 19.2604C37.3484 19.2966 37.3149 19.2982 37.3006 19.3151C36.3851 20.3801 35.6159 21.544 35.0201 22.819C34.9748 22.9155 35.0607 23.1471 35.1577 23.2276C35.7822 23.7448 36.4265 24.2363 37.0636 24.7382C37.6952 25.2353 38.3259 25.734 38.9575 26.2311C38.9901 26.215 39.0219 26.1981 39.0545 26.182C38.5224 23.8831 37.9903 21.5842 37.4518 19.2604Z" fill="#F9F6F2"/>
<path d="M56.8603 11.2335C57.3176 11.314 57.775 11.392 58.2324 11.4748C60.3776 11.865 62.5126 12.3323 64.6706 12.6275C66.7387 12.9107 68.8282 13.1238 70.9131 13.1729C73.5197 13.234 76.1326 13.1471 78.7392 13.0281C81.1717 12.9163 83.6041 12.7369 86.0253 12.4787C88.3114 12.2358 90.5815 11.8457 92.8596 11.5312C94.8371 11.2585 96.8129 10.9657 98.7967 10.7533C99.5786 10.6697 100.38 10.7726 101.173 10.8024C101.31 10.808 101.445 10.8756 101.581 10.989C101.541 11.0003 101.501 11.022 101.462 11.0204C99.6868 10.9753 97.9647 11.3526 96.2426 11.7089C93.5644 12.2631 90.8997 12.8865 88.2135 13.3941C86.5654 13.7054 84.8895 13.8703 83.2223 14.0722C81.594 14.27 79.9634 14.4583 78.3296 14.6023C74.475 14.9425 70.6195 15.2096 66.745 14.9055C64.3627 14.7181 62.0433 14.1912 59.7111 13.7255C57.0162 13.1874 54.3316 12.5994 51.6304 12.0966C49.2298 11.6502 46.7989 11.4411 44.357 11.5963C40.9367 11.8143 37.8568 12.9726 35.1937 15.1766C34.3768 15.8531 33.6187 16.6027 32.7963 17.2937C33.2727 16.7306 33.7277 16.1475 34.232 15.6109C34.7427 15.0688 35.2756 14.5419 35.8475 14.069C36.429 13.5887 37.0486 13.1463 37.6921 12.7546C38.3237 12.3709 38.9902 12.0315 39.6719 11.7475C40.3647 11.458 41.087 11.2295 41.8108 11.03C42.5195 10.8354 43.2474 10.7123 43.9696 10.5233C40.1715 10.0592 36.3494 10.146 32.5234 10.0334C32.8909 9.994 33.2576 9.94412 33.6259 9.91517C36.9015 9.65696 40.1802 9.38106 43.4669 9.59905C45.286 9.7197 47.098 9.9586 48.91 10.1726C49.1518 10.2015 49.2982 10.1557 49.4739 10.0117C51.9756 7.96054 54.5885 6.0783 57.4743 4.6071C59.5743 3.53648 61.7617 2.72004 64.0947 2.36933C67.2748 1.89154 70.3093 2.41438 73.1927 3.84214C76.1318 5.29806 78.577 7.41598 80.8925 9.70844C81.279 10.0913 81.6775 10.4629 82.0705 10.8394C82.0403 10.874 82.01 10.9094 81.9798 10.944C81.5614 10.6166 81.1422 10.29 80.7254 9.96021C78.9755 8.57669 77.2176 7.20443 75.2903 6.07267C73.0352 4.74867 70.6434 3.81882 68.032 3.57509C65.7539 3.36274 63.5188 3.64024 61.3345 4.34085C57.9755 5.41791 55.0125 7.22775 52.2221 9.35613C51.7839 9.69075 51.3543 10.0374 50.9511 10.4766C51.3496 10.5217 51.7489 10.5651 52.1474 10.6126C53.1584 10.734 54.1686 10.8587 55.1795 10.9794C55.2678 10.9898 55.3927 11.0156 55.442 10.9705C56.0577 10.4034 56.8579 10.4573 57.5952 10.2997C58.5871 10.0873 59.5894 9.91115 60.5654 9.63927C61.1572 9.47437 61.6448 9.0754 61.9741 8.5244C62.2954 7.98628 62.2151 7.60903 61.7036 7.2551C60.6369 6.51588 59.5059 6.47727 58.3469 6.98644C57.0186 7.57122 55.9901 8.55336 55.0316 9.61835C54.9512 9.70683 54.8741 9.79853 54.793 9.88541C54.7786 9.90069 54.7492 9.89988 54.5957 9.94654C54.9847 9.3875 55.2813 8.88798 55.648 8.44879C56.6407 7.26154 57.8522 6.41775 59.4104 6.17724C60.6775 5.98178 61.8372 6.26894 62.8506 7.0532C63.6898 7.70233 63.7105 8.58071 62.9381 9.30947C62.2851 9.92562 61.4499 10.1718 60.6131 10.3664C59.4168 10.6439 58.2061 10.8579 57.0019 11.1C56.9557 11.1097 56.912 11.129 56.8674 11.1443C56.865 11.1724 56.8627 11.2014 56.8603 11.2295V11.2335Z" fill="#F9F6F2"/>
<path d="M51.6205 36.6084C51.8106 35.9383 51.9936 35.356 52.1407 34.764C52.8359 31.9776 53.0817 29.1567 52.7874 26.2899C52.5011 23.4995 51.7518 20.8676 50.2309 18.4971C49.0354 16.6326 47.4883 15.1654 45.382 14.4125C42.9679 13.5502 40.6405 13.8896 38.4069 15.064C36.8352 15.8901 35.5283 17.0508 34.39 18.4134C34.3391 18.4746 34.2874 18.5341 34.2341 18.592C34.2166 18.6105 34.1912 18.6202 34.1172 18.5952C34.4966 18.0941 34.8593 17.5793 35.257 17.0943C36.7246 15.3078 38.4443 13.8583 40.6262 13.0314C44.2795 11.647 48.0578 12.8263 50.5785 15.7357C52.6228 18.0949 53.6449 20.9078 54.1126 23.9604C54.4101 25.9038 54.4061 27.8552 54.1874 29.8034C54.0935 30.6375 53.9074 31.4612 53.7642 32.2897C53.7467 32.3919 53.734 32.4948 53.7053 32.6911C59.5008 31.3261 65.2422 29.9828 71.0909 29.1671C76.9389 28.3515 82.8115 27.8367 88.7056 27.4932C76.0965 29.398 63.6322 31.8899 51.6205 36.606V36.6084Z" fill="#F9F6F2"/>
<path d="M160.283 49.422C157.601 52.1457 153.16 51.5657 151.078 49.188C149.085 46.9116 148.821 43.5364 150.976 40.9938C152.176 39.5781 153.746 38.892 155.598 38.826C157.431 38.7601 159.006 39.3296 160.361 40.7557C160.361 40.2023 160.376 39.7663 160.357 39.332C160.341 38.9781 160.459 38.8164 160.831 38.8268C161.493 38.8461 162.157 38.8381 162.818 38.8292C163.076 38.826 163.267 38.8888 163.292 39.1824C163.316 39.4542 163.285 39.6618 162.94 39.7366C162.338 39.8677 162.2 40.0969 162.199 40.8442C162.196 42.9597 162.199 45.076 162.197 47.1915C162.197 48.2895 162.217 49.3883 162.184 50.4854C162.123 52.4851 161.189 53.978 159.49 54.9722C158.519 55.5409 157.448 55.7686 156.325 55.7935C155.077 55.8208 153.847 55.738 152.693 55.216C151.065 54.4791 150.088 53.2002 149.695 51.4475C149.621 51.1177 149.767 51.0147 150.038 50.9761C150.104 50.9672 150.171 50.9809 150.236 50.9737C151.052 50.8755 151.671 50.9399 151.926 51.9816C152.129 52.8101 152.885 53.3128 153.69 53.5815C155.057 54.0384 156.449 54.1148 157.831 53.6313C159.459 53.0618 160.185 51.803 160.278 50.2144C160.292 49.9755 160.279 49.7358 160.279 49.4237L160.283 49.422ZM155.645 40.7485C153.107 40.8563 151.437 43.0176 151.554 45.2288C151.686 47.7127 153.902 49.7148 156.714 49.2805C158.663 48.9796 160.471 47.1714 160.271 44.772C160.046 42.054 157.753 40.5884 155.645 40.7485Z" fill="#F9F6F2"/>
<path d="M134.428 61.3429C134.548 61.8874 134.661 62.4087 134.784 62.9717C135.314 62.5719 135.786 62.1698 136.301 61.8351C137.418 61.1088 138.623 60.845 139.948 61.1603C141.069 61.4273 141.81 62.0893 142.178 63.139C142.709 62.7039 143.207 62.2293 143.767 61.848C144.95 61.042 146.259 60.8409 147.647 61.1788C148.783 61.4555 149.564 62.2759 149.692 63.4841C149.797 64.4735 149.787 65.4765 149.809 66.474C149.829 67.3564 149.817 68.2396 149.825 69.1228C149.835 70.0727 149.851 71.0235 149.867 71.9735C149.871 72.2462 149.748 72.3499 149.479 72.3451C148.821 72.333 148.162 72.3572 147.506 72.325C147.387 72.3193 147.181 72.1175 147.179 72.0024C147.163 71.1602 147.209 70.3165 147.196 69.4743C147.173 67.8599 147.173 66.2431 147.064 64.6336C147.003 63.731 146.368 63.3104 145.47 63.2524C144.278 63.1752 143.429 63.7689 142.706 64.6134C142.538 64.8097 142.422 65.1097 142.405 65.3704C142.347 66.2512 142.32 67.136 142.326 68.0184C142.335 69.2756 142.383 70.5328 142.413 71.7901C142.417 71.9606 142.413 72.1303 142.413 72.3185C142.107 72.3185 141.859 72.3185 141.61 72.3185C141.177 72.3177 140.74 72.2832 140.31 72.3226C139.789 72.37 139.682 72.3113 139.688 71.7925C139.712 69.7043 139.748 67.617 139.759 65.5288C139.761 65.1757 139.695 64.8145 139.607 64.4711C139.412 63.7109 138.826 63.2935 138.054 63.2557C136.933 63.201 136.052 63.7085 135.248 64.414C134.956 64.6706 134.83 65.0028 134.832 65.4066C134.845 67.5357 134.842 69.6641 134.846 71.7933C134.847 72.3314 134.84 72.3403 134.326 72.3411C133.782 72.3419 133.239 72.3282 132.696 72.3459C132.359 72.3572 132.206 72.2325 132.211 71.8858C132.231 70.4669 132.234 69.048 132.259 67.629C132.291 65.853 132.223 64.0874 131.83 62.3467C131.708 61.8094 131.714 61.8166 132.261 61.7266C132.958 61.6115 133.652 61.4812 134.427 61.3429H134.428Z" fill="#F9F6F2"/>
<path d="M98.6186 62.6556C98.6186 60.643 98.6313 58.7045 98.6114 56.7659C98.6051 56.1329 98.5884 56.1273 99.2175 56.1047C99.7839 56.0846 100.35 56.038 100.913 55.9712C101.456 55.9061 101.531 55.9398 101.512 56.4796C101.442 58.4833 101.318 60.4862 101.297 62.4907C101.27 65.0051 101.325 67.5204 101.343 70.0357C101.348 70.7822 101.343 71.5278 101.343 72.3426C101.051 72.3426 100.687 72.3378 100.323 72.3443C100.007 72.3499 99.6805 72.3241 99.3758 72.3925C98.9869 72.4802 98.9105 72.2871 98.8898 71.9791C98.8652 71.5978 98.8381 71.2173 98.8047 70.7395C98.469 71.0508 98.2153 71.3147 97.9329 71.5423C95.3836 73.5991 91.6666 72.7344 90.2372 69.619C89.1657 67.2831 89.3574 64.9834 90.9053 62.8977C91.7358 61.7788 92.8891 61.1707 94.2923 60.9994C95.7853 60.8176 97.0436 61.2214 98.1175 62.2695C98.2551 62.4038 98.4221 62.5076 98.6162 62.6572L98.6186 62.6556ZM92.1979 66.8817C92.147 67.6918 92.4731 68.4672 93.0236 69.1686C94.1682 70.6277 96.3039 70.7709 97.5821 69.4453C98.6114 68.3779 98.8278 67.082 98.4858 65.6792C98.0244 63.7857 96.1019 62.7079 94.3694 63.3425C93.3115 63.7294 92.143 65.0156 92.1979 66.8826V66.8817Z" fill="#F9F6F2"/>
<path d="M107.051 17.2961C106.613 17.2961 106.176 17.2921 105.739 17.2977C105.507 17.3001 105.352 17.2157 105.34 16.9647C105.329 16.7403 105.298 16.5111 105.593 16.4105C106.165 16.2159 106.234 15.9247 105.845 15.4308C105.058 14.4317 104.024 13.7891 102.806 13.5598C101.064 13.2324 99.328 13.2984 97.7737 14.303C96.3173 15.2442 95.5028 16.6293 95.2347 18.3515C94.9666 20.0736 95.0756 21.7548 95.875 23.3233C96.7882 25.1162 98.2422 26.1442 100.253 26.3888C101.808 26.5778 103.27 26.429 104.597 25.512C105.308 25.0205 105.877 24.4012 106.268 23.6257C106.47 23.226 106.387 23.0675 105.952 23.0015C105.593 22.9469 105.559 22.7136 105.573 22.4192C105.587 22.1248 105.745 22.0339 106.012 22.0355C106.78 22.0411 107.549 22.0371 108.318 22.0379C108.817 22.0379 108.945 22.1843 108.826 22.6549C108.144 25.3439 106.583 27.2438 103.891 28.0048C101.371 28.7174 98.8778 28.6394 96.5885 27.198C94.6739 25.993 93.5866 24.1896 93.1682 21.9607C92.8238 20.1251 92.8413 18.304 93.4856 16.5376C94.5061 13.74 96.4986 12.095 99.4075 11.5899C101.533 11.2215 103.581 11.4628 105.496 12.4916C107.211 13.4126 108.231 14.9023 108.737 16.7717C108.834 17.1296 108.696 17.2929 108.323 17.2961C107.899 17.2993 107.475 17.2961 107.051 17.2961Z" fill="#F9F6F2"/>
<path d="M161.156 70.7959C160.728 71.1225 160.406 71.3726 160.079 71.6171C159.292 72.206 158.419 72.6274 157.436 72.6484C156.157 72.6757 155.002 72.2687 154.039 71.3783C152.993 70.4098 152.305 69.2298 152.126 67.806C151.775 65.0052 152.859 62.095 155.786 61.1563C157.845 60.4959 159.688 60.8643 161.145 62.5969C161.22 62.687 161.29 62.7835 161.438 62.9725C161.547 62.4883 161.634 62.1271 161.711 61.7636C161.779 61.445 161.885 61.2689 162.278 61.3895C162.737 61.5311 163.224 61.581 163.697 61.6807C163.949 61.733 164.075 61.8641 164.024 62.1601C163.913 62.7996 163.797 63.4407 163.747 64.0866C163.672 65.0543 163.638 66.0251 163.616 66.9952C163.606 67.4746 163.667 67.9548 163.691 68.435C163.748 69.5684 163.794 70.7034 163.864 71.8359C163.888 72.2188 163.767 72.3548 163.378 72.3515C162.919 72.3475 162.453 72.3869 162.002 72.4762C161.606 72.555 161.467 72.3725 161.399 72.0459C161.319 71.663 161.249 71.2777 161.156 70.7951V70.7959ZM154.639 66.7161C154.744 67.1907 154.793 67.6862 154.963 68.1366C155.792 70.3454 158.517 70.9922 160.081 69.3705C161.278 68.1286 161.459 66.1305 160.551 64.6569C159.583 63.086 157.718 62.7682 156.39 63.5911C155.265 64.2877 154.715 65.3551 154.639 66.7161Z" fill="#F9F6F2"/>
<path d="M88.0019 45.9648C88.1125 47.1223 89.3279 48.797 91.3037 49.2531C92.7442 49.5861 94.6946 49.0166 95.1591 48.1455C95.012 47.9685 94.8076 47.831 94.7694 47.6556C94.6739 47.218 94.7917 47.1094 95.2387 47.1086C96.0206 47.107 96.8025 47.1054 97.5836 47.1094C97.9535 47.1118 98.0481 47.2623 97.8859 47.6081C96.9775 49.5427 95.5044 50.7637 93.4028 51.1297C89.9881 51.7249 87.1683 49.7767 86.2313 46.9421C85.0811 43.4624 87.2542 39.7188 90.8177 38.9877C92.6186 38.6185 94.2985 38.8775 95.7987 39.9883C96.9664 40.8522 97.648 42.0539 97.9193 43.4704C98.0489 44.1445 98.0386 44.8459 98.0919 45.5353C98.1165 45.8562 97.9901 45.9729 97.6544 45.9712C94.5673 45.9592 91.4803 45.964 88.3933 45.964C88.2628 45.964 88.1332 45.964 88.0003 45.964L88.0019 45.9648ZM87.9661 44.0979H96.0779C95.9442 42.255 94.2309 40.6133 92.0506 40.6865C89.6779 40.7661 88.1324 42.572 87.9653 44.0979H87.9661Z" fill="#F9F6F2"/>
<path d="M120.995 17.8922C120.995 17.449 120.998 17.0927 120.994 16.7363C120.99 16.4025 121.147 16.2448 121.477 16.2505C121.781 16.2553 122.087 16.2658 122.391 16.2481C122.764 16.2263 122.913 16.3768 122.908 16.7605C122.894 17.885 122.904 19.0103 122.904 20.1348C122.904 22.2374 122.904 24.3393 122.904 26.4419C122.904 27.1851 123.004 27.3179 123.725 27.5013C124.029 27.5793 124.039 27.8262 123.982 28.0386C123.946 28.1761 123.772 28.3724 123.654 28.3764C122.886 28.407 122.117 28.3965 121.349 28.3893C121.084 28.3869 120.989 28.2196 120.993 27.9654C121 27.5117 120.995 27.058 120.995 26.5006C119.617 28.0096 117.951 28.5405 116.038 28.3845C114.103 28.2268 112.593 27.2986 111.456 25.7469C109.662 23.2976 110.076 19.7302 112.319 17.6718C114.644 15.5378 118.541 15.3053 120.995 17.8906V17.8922ZM116.612 17.9099C114.097 17.8608 112.345 19.9715 112.238 21.8722C112.086 24.5516 114.165 26.5111 116.583 26.5264C119.049 26.5416 120.915 24.4824 120.946 22.2398C120.976 20.0407 119.065 17.8464 116.613 17.9099H116.612Z" fill="#F9F6F2"/>
<path d="M110.424 40.6841C110.424 40.2683 110.43 39.9208 110.423 39.5733C110.416 39.2178 110.585 39.0625 110.931 39.0722C111.222 39.0802 111.514 39.0722 111.805 39.0738C112.275 39.0762 112.332 39.1317 112.332 39.6079C112.333 42.7683 112.332 45.9287 112.332 49.089C112.332 49.2226 112.325 49.3577 112.333 49.4904C112.366 50.0141 112.547 50.2506 113.059 50.3133C113.426 50.3583 113.431 50.582 113.426 50.8506C113.419 51.1531 113.242 51.2222 112.978 51.219C112.275 51.2102 111.573 51.211 110.871 51.219C110.554 51.2222 110.412 51.0887 110.42 50.7637C110.431 50.3149 110.422 49.8653 110.422 49.373C107.693 52.3266 103.209 51.4169 101.221 49.0351C99.2399 46.6606 99.2996 43.1029 101.423 40.8161C103.53 38.5461 107.672 37.8688 110.421 40.6849L110.424 40.6841ZM106.041 40.7324C103.526 40.6833 101.774 42.794 101.667 44.6956C101.516 47.3741 103.594 49.3344 106.012 49.3497C108.479 49.3649 110.362 47.3001 110.375 45.0221C110.387 42.8712 108.503 40.6697 106.041 40.7324Z" fill="#F9F6F2"/>
<path d="M105.971 68.0103C106.157 69.1212 107.113 70.0808 108.322 70.3253C109.921 70.6487 111.335 70.1717 112.613 69.2024C112.716 69.1244 112.82 69.0496 112.968 68.9402C113.251 69.4823 113.532 69.9923 113.777 70.52C113.816 70.602 113.722 70.7943 113.635 70.8803C112.638 71.8761 111.449 72.44 110.041 72.5953C108.928 72.7183 107.845 72.629 106.82 72.2293C104.815 71.4474 103.706 69.932 103.415 67.7738C103.173 65.9688 103.536 64.3311 104.659 62.9026C105.566 61.7475 106.72 61.0308 108.217 60.8345C111.192 60.4444 113.376 62.6588 113.777 64.8145C113.872 65.3205 113.911 65.8433 113.908 66.3581C113.905 66.9099 113.404 67.292 112.721 67.3596C111.149 67.514 109.577 67.6797 108.003 67.8318C107.531 67.8776 107.054 67.8873 106.581 67.9235C106.377 67.9387 106.174 67.9798 105.97 68.0095L105.971 68.0103ZM106.951 66.0734C106.952 66.083 106.953 66.0927 106.953 66.1032C107.714 66.0388 108.476 65.9881 109.234 65.9061C109.741 65.8514 110.245 65.7645 110.745 65.664C110.945 65.6237 111.241 65.6117 111.207 65.2867C111.079 64.0464 109.982 63.1342 108.989 63.0216C107.319 62.8326 106.024 64.2804 105.916 65.6801C105.896 65.9487 106.005 66.0806 106.277 66.0742C106.501 66.0694 106.726 66.0734 106.951 66.0734Z" fill="#F9F6F2"/>
<path d="M71.0938 66.6807C71.1423 64.0174 72.7896 61.7764 75.253 61.0798C78.5548 60.1459 81.6427 62.3097 82.283 65.3824C82.8891 68.2902 81.4184 71.2222 78.7736 72.2059C75.4232 73.4519 72.0459 71.4257 71.3053 68.0939C71.2019 67.6306 71.1637 67.152 71.0953 66.6807H71.0938ZM79.9747 66.6967C80.0844 64.8081 78.4387 62.7521 75.9514 63.3425C74.1872 63.7616 73.1165 65.9487 73.7449 67.8502C74.3216 69.5957 75.9108 70.5167 77.6154 70.088C78.8643 69.7743 80.0669 68.3433 79.9747 66.6959V66.6967Z" fill="#F9F6F2"/>
<path d="M117.817 40.3849C119.765 38.3385 123.12 38.4375 124.998 39.9038C126.032 40.7114 126.578 41.8158 126.79 43.0851C126.907 43.7769 126.941 44.4872 126.954 45.191C126.978 46.5568 126.96 47.9227 126.961 49.2885C126.961 50.002 127.086 50.1677 127.774 50.3205C128.075 50.3873 128.127 50.6109 128.059 50.8321C128.014 50.9817 127.836 51.1948 127.712 51.1981C126.547 51.2262 125.38 51.223 124.215 51.2005C124.107 51.1981 123.939 51.0115 123.913 50.8868C123.872 50.6809 123.832 50.4178 124.139 50.3269C124.933 50.092 124.972 50.0374 124.972 49.2C124.972 47.5929 125.007 45.9849 124.955 44.3794C124.935 43.7713 124.784 43.1431 124.569 42.5712C124.13 41.4016 123.17 40.8538 121.993 40.7726C119.512 40.602 118.166 42.0982 117.995 44.4035C117.868 46.1072 117.918 47.8245 117.898 49.5354C117.893 50.0052 118.082 50.2473 118.569 50.3108C118.939 50.3583 118.937 50.5787 118.93 50.8474C118.922 51.1538 118.736 51.2117 118.478 51.2109C117.405 51.2053 116.331 51.2061 115.258 51.2109C115.006 51.2117 114.811 51.1675 114.794 50.8594C114.777 50.5634 114.816 50.3422 115.193 50.3133C115.596 50.2819 115.833 50.055 115.836 49.6086C115.837 49.2764 115.903 48.945 115.904 48.6128C115.911 46.0686 115.908 43.5235 115.906 40.9793C115.906 40.8072 115.873 40.6358 115.861 40.4629C115.833 40.0221 115.592 39.7872 115.169 39.7357C114.897 39.7028 114.789 39.5596 114.789 39.2813C114.789 38.9555 114.924 38.826 115.243 38.8308C115.946 38.8413 116.648 38.8413 117.35 38.8308C117.691 38.826 117.831 38.9748 117.819 39.3134C117.807 39.6424 117.816 39.973 117.816 40.3873L117.817 40.3849Z" fill="#F9F6F2"/>
<path d="M137.936 40.3769C138.674 39.6666 139.444 39.18 140.37 38.9789C143.261 38.3523 146.379 39.6224 146.921 43.1793C147.001 43.7029 147.065 44.2346 147.073 44.7639C147.092 46.2633 147.079 47.7634 147.08 49.2636C147.08 50.0117 147.177 50.1395 147.908 50.3221C148.178 50.3897 148.246 50.594 148.18 50.808C148.132 50.9624 147.971 51.1941 147.856 51.1965C146.677 51.2255 145.498 51.2238 144.319 51.1973C144.215 51.1949 144.063 50.9729 144.03 50.8305C143.984 50.6318 143.984 50.3986 144.273 50.3229C145.012 50.1299 145.091 50.0221 145.091 49.2644C145.091 47.6307 145.109 45.9962 145.084 44.3633C145.072 43.5485 144.902 42.7578 144.436 42.0628C143.866 41.2126 143.031 40.8225 142.057 40.7678C139.507 40.6254 138.26 42.2438 138.111 44.418C137.994 46.1225 138.037 47.839 138.017 49.5499C138.012 49.9948 138.209 50.2546 138.663 50.3052C139.051 50.3495 139.062 50.5747 139.048 50.8611C139.032 51.1716 138.831 51.2102 138.581 51.2086C137.508 51.2037 136.435 51.2029 135.362 51.2086C135.101 51.2102 134.923 51.145 134.912 50.8418C134.902 50.5627 134.931 50.3447 135.288 50.3149C135.709 50.2803 135.956 50.0559 135.956 49.591C135.956 49.2861 136.022 48.9804 136.023 48.6756C136.028 46.104 136.026 43.5332 136.023 40.9616C136.023 40.7895 135.986 40.6182 135.975 40.446C135.948 40.0221 135.719 39.7905 135.311 39.7398C135.026 39.7044 134.899 39.5644 134.907 39.2628C134.914 38.9604 135.035 38.826 135.337 38.8292C136.053 38.8365 136.768 38.8373 137.484 38.8292C137.802 38.826 137.944 38.9644 137.936 39.2861C137.928 39.6199 137.934 39.9546 137.934 40.3761L137.936 40.3769Z" fill="#F9F6F2"/>
<path d="M20.0449 36.2287C19.6926 36.6381 19.3474 37.054 18.987 37.4554C17.4582 39.1558 15.7974 40.7018 13.8184 41.8617C10.6414 43.7231 7.30462 44.0102 3.85247 42.8029C2.73967 42.4135 1.6738 41.8883 0.586457 41.4258C0.603161 41.3823 0.619865 41.3381 0.636569 41.2947C1.16234 41.433 1.68335 41.5907 2.2139 41.7073C4.02667 42.1071 5.84979 42.2889 7.67608 41.8046C9.03149 41.4451 10.1276 40.6978 10.896 39.4945C10.9508 39.4084 10.993 39.3151 11.0733 39.1639C6.97134 39.0448 3.27897 37.8503 0.03125 35.3616C4.08156 37.4168 8.34344 38.5365 12.9482 38.341C12.4598 39.2194 11.9165 40.0286 11.1672 40.6455C10.4394 41.2448 9.63442 41.7491 8.9432 42.2382C11.343 41.4692 13.221 39.7865 14.9312 37.823C12.4606 37.9485 10.0115 37.9018 7.58461 37.4522C5.16492 37.0041 2.8399 36.2279 0.543504 35.3375C6.9769 36.9961 13.4548 37.5093 20.0147 36.1225C20.0251 36.1587 20.0346 36.1957 20.0449 36.2319V36.2287Z" fill="#F9F6F2"/>
<path d="M63.9219 72.1255C64.2448 71.827 64.5845 71.5302 64.9042 71.2125C65.4913 70.6301 65.7864 69.8925 65.8921 69.0898C66.204 66.708 66.0496 64.311 66.0409 61.922C66.0345 60.1475 65.8937 58.3739 65.8221 56.5994C65.8046 56.1651 65.9279 56.0991 66.367 56.1136C67.0765 56.1369 67.7884 56.1353 68.4988 56.1128C68.9163 56.0999 69.0046 56.1506 68.9991 56.589C68.9482 60.2931 68.9299 63.9973 68.8249 67.6998C68.7764 69.4171 68.4797 71.116 67.417 72.5429C67.032 73.0593 66.542 73.4977 66.0783 73.9498C66.0027 74.0238 65.7522 74.0447 65.6893 73.9812C65.0999 73.3891 64.5336 72.7738 63.9227 72.1247L63.9219 72.1255Z" fill="#F9F6F2"/>
<path d="M84.7364 67.4111C84.7364 65.257 84.7555 63.1028 84.7292 60.9487C84.7117 59.492 84.6258 58.0369 84.5797 56.5802C84.5654 56.1201 84.6425 56.0959 85.0776 56.1185C85.7211 56.1522 86.3686 56.1547 87.0121 56.1209C87.4544 56.0976 87.549 56.1458 87.5148 56.5737C87.2778 59.562 87.2285 62.5551 87.273 65.5514C87.3048 67.6524 87.3231 69.7542 87.3597 71.8552C87.3661 72.2108 87.2603 72.366 86.8833 72.3475C86.328 72.321 85.7697 72.3234 85.2144 72.3475C84.8541 72.3628 84.7245 72.2438 84.7284 71.8681C84.7451 70.3824 84.7356 68.8968 84.7348 67.4111H84.7364Z" fill="#F9F6F2"/>
<path d="M2.64923 45.2731C4.78654 45.8844 6.94294 46.2705 9.12081 46.5198C12.0575 46.8561 15.007 46.992 17.9604 46.8167C19.6888 46.7145 21.4189 46.585 23.1386 46.3839C25.3443 46.1257 27.5206 45.6921 29.5998 44.8669C29.8194 44.78 29.9371 44.8105 30.0858 45.0084C30.5472 45.6214 31.0388 46.2102 31.5582 46.8577C30.793 47.021 30.0532 47.1939 29.3071 47.3355C25.0922 48.1334 20.839 48.4471 16.5533 48.3305C13.9443 48.2597 11.3512 48.0272 8.7923 47.4964C6.75681 47.0749 4.77381 46.4804 2.94036 45.4573C2.84014 45.401 2.74548 45.335 2.64844 45.2731H2.64923Z" fill="#F9F6F2"/>
<path d="M118.499 62.5438C118.884 62.3113 119.176 62.136 119.466 61.959C120.386 61.3976 121.367 61.1177 122.441 61.3429C122.56 61.3678 122.741 61.5488 122.736 61.651C122.707 62.3564 122.645 63.0602 122.575 63.7632C122.555 63.9651 122.438 64.0882 122.196 64.0689C121.67 64.0271 121.142 63.9901 120.615 63.9885C119.428 63.9853 118.769 64.5765 118.772 65.6769C118.775 67.0387 118.763 68.4013 118.764 69.7631C118.764 70.5127 118.774 71.2624 118.785 72.0121C118.788 72.247 118.699 72.3483 118.456 72.3443C117.82 72.333 117.183 72.329 116.548 72.3459C116.234 72.354 116.124 72.2293 116.128 71.922C116.144 70.9447 116.148 69.9674 116.151 68.9901C116.155 67.9323 116.148 66.8738 116.153 65.816C116.16 64.4928 116.017 63.1881 115.66 61.9148C115.572 61.6011 115.645 61.5223 115.948 61.4845C116.558 61.408 117.163 61.2898 117.769 61.1828C118.061 61.1313 118.309 61.0831 118.313 61.5343C118.316 61.84 118.421 62.1448 118.499 62.5438Z" fill="#F9F6F2"/>
<path d="M128.231 17.8704C129.703 16.0904 131.429 15.5997 133.558 16.3003C133.558 16.807 133.566 17.3267 133.554 17.8463C133.549 18.0603 133.433 18.1841 133.199 18.131C130.927 17.613 129.128 18.7593 128.635 21.0638C128.535 21.5271 128.484 22.0089 128.477 22.4827C128.456 23.8614 128.469 25.2401 128.47 26.6196C128.47 27.1505 128.6 27.3757 129.104 27.465C129.523 27.5398 129.521 27.794 129.502 28.1013C129.481 28.452 129.218 28.3916 129.001 28.3924C127.954 28.3957 126.908 28.3924 125.862 28.3949C125.624 28.3949 125.396 28.39 125.37 28.0715C125.345 27.7699 125.372 27.5342 125.769 27.4803C126.145 27.4296 126.416 27.206 126.422 26.7612C126.426 26.4684 126.479 26.1756 126.479 25.8836C126.484 23.3 126.483 20.7163 126.479 18.1319C126.479 17.9613 126.429 17.7916 126.421 17.6203C126.399 17.1923 126.177 16.9591 125.764 16.9181C125.411 16.8827 125.306 16.6542 125.384 16.3614C125.42 16.2239 125.598 16.0308 125.718 16.026C126.433 15.9946 127.149 16.0099 127.864 16.0099C128.132 16.0099 128.236 16.1571 128.234 16.4153C128.229 16.8634 128.232 17.3114 128.232 17.8696L128.231 17.8704Z" fill="#F9F6F2"/>
<path d="M23.9244 27.4859C22.8077 29.1011 21.8484 30.8337 20.4142 32.2108C19.4923 33.0956 18.3541 33.5605 17.1403 33.822C14.9743 34.2885 12.7758 34.4993 10.5637 34.5556C10.2789 34.5628 9.99337 34.5242 9.70781 34.5065C9.69349 34.4727 9.67918 34.4381 9.66406 34.4043C10.1668 33.9853 10.6583 33.5509 11.1762 33.1511C11.7115 32.7385 12.2659 32.3484 12.8251 31.9695C13.2244 31.6992 13.6022 31.4265 14.1431 31.4056C14.6323 31.3871 15.065 31.0895 15.3243 30.6206C15.45 30.3929 15.6067 30.3431 15.8779 30.3849C17.0202 30.5626 17.9397 30.1299 18.6937 29.2668C18.8663 29.0689 19.0883 28.8646 19.3269 28.785C20.7038 28.3265 22.0918 27.9026 23.4782 27.4714C23.6015 27.4328 23.7335 27.4256 23.8616 27.4039C23.8823 27.4304 23.9038 27.4578 23.9244 27.4843V27.4859Z" fill="#F9F6F2"/>
<path d="M125.364 70.3124C125.814 70.236 126.28 70.2087 126.712 70.0735C127.626 69.788 127.983 68.6667 127.096 68.0328C126.572 67.6588 126.014 67.3153 125.432 67.0467C123.169 66.0042 123.468 62.724 125.423 61.6292C126.241 61.1715 127.114 60.9954 128.022 60.9487C128.161 60.9415 128.388 61.1168 128.441 61.2592C128.612 61.7145 128.73 62.1915 128.851 62.6644C128.917 62.9242 128.851 63.0803 128.528 63.1101C128.008 63.1567 127.486 63.2355 126.98 63.3586C126.58 63.4551 126.309 63.7624 126.259 64.1759C126.212 64.566 126.441 64.8604 126.76 65.0631C127.339 65.4307 127.924 65.7886 128.51 66.145C129.539 66.7708 129.925 67.7199 129.924 68.8975C129.924 70.7605 128.428 71.9686 126.837 72.3258C126.252 72.4569 125.635 72.4504 125.033 72.4907C124.743 72.51 124.558 72.3797 124.535 72.0563C124.503 71.5785 124.463 71.1007 124.41 70.6245C124.376 70.3116 124.515 70.2207 124.799 70.2449C124.982 70.2609 125.169 70.2481 125.355 70.2481L125.365 70.3132L125.364 70.3124Z" fill="#F9F6F2"/>
<path d="M83.4686 41.9977C83.4686 44.34 83.4663 46.6823 83.4726 49.0247C83.4726 49.2756 83.506 49.5298 83.5561 49.7759C83.6277 50.1267 83.9077 50.2795 84.2187 50.3092C84.6204 50.3471 84.595 50.6117 84.5799 50.8836C84.5639 51.1667 84.3714 51.2109 84.1352 51.2101C83.0359 51.2053 81.9367 51.2053 80.8374 51.2101C80.6131 51.2109 80.4277 51.1731 80.4317 50.8989C80.4349 50.6487 80.3394 50.3696 80.765 50.3084C81.3035 50.2304 81.4817 49.9553 81.4817 49.3866C81.4817 44.9698 81.4833 40.5522 81.4801 36.1354C81.4801 35.6415 81.4093 35.2329 80.7435 35.1613C80.3561 35.1194 80.4222 34.8363 80.4325 34.5918C80.4444 34.3191 80.6218 34.2475 80.8692 34.2499C81.5708 34.258 82.2731 34.2676 82.9747 34.2467C83.3621 34.2354 83.4766 34.3979 83.475 34.7703C83.4647 37.1794 83.4694 39.5894 83.4694 41.9985L83.4686 41.9977Z" fill="#F9F6F2"/>
<path d="M132.451 44.3626C132.451 45.9954 132.451 47.6275 132.451 49.2604C132.451 50.0229 132.535 50.1355 133.274 50.3222C133.571 50.397 133.618 50.6262 133.549 50.8434C133.502 50.9906 133.318 51.1965 133.192 51.1997C132.027 51.2271 130.861 51.2255 129.696 51.1997C129.579 51.1973 129.405 51.0011 129.364 50.8627C129.301 50.6479 129.327 50.4074 129.62 50.3246C130.328 50.1243 130.46 49.9594 130.461 49.2242C130.465 46.4137 130.464 43.604 130.461 40.7935C130.461 40.0744 130.354 39.9128 129.676 39.7326C129.334 39.6417 129.331 39.4132 129.352 39.1526C129.375 38.8727 129.568 38.8277 129.804 38.8301C130.532 38.8365 131.26 38.8413 131.989 38.8285C132.331 38.822 132.457 38.9636 132.455 39.3046C132.446 40.9906 132.451 42.6766 132.451 44.3634V44.3626Z" fill="#F9F6F2"/>
<path d="M23.5902 23.6434C24.8757 23.6089 25.259 24.0054 25.096 24.772C25.0769 24.8605 24.9639 24.9948 24.8939 24.9956C23.4375 25.0077 22.1489 25.6158 20.8476 26.1627C20.0681 26.4901 19.314 26.877 18.5409 27.2197C18.3977 27.2832 18.2108 27.3017 18.0565 27.2744C16.7734 27.0435 15.3123 27.8801 14.9265 29.1084C14.8437 29.3714 14.699 29.3505 14.5073 29.3288C13.9028 29.2604 13.3738 29.4301 12.9801 29.9047C12.844 30.0688 12.6977 30.3133 12.7184 30.5031C12.7589 30.8683 12.5656 31.0252 12.3382 31.2223C11.2723 32.1457 10.2104 33.0763 9.39906 34.2491C9.20418 34.5314 9.00055 34.3842 8.80647 34.3191C8.50818 34.2185 8.20513 34.0488 8.26558 33.6804C8.3133 33.3908 8.42705 33.0651 8.61875 32.8559C9.29009 32.1207 9.98449 31.4032 10.7123 30.7252C13.8598 27.7932 17.5721 25.8144 21.5301 24.2684C22.3239 23.9588 23.1639 23.7713 23.591 23.6442L23.5902 23.6434Z" fill="#F9F6F2"/>
<path d="M28.7615 41.984C28.0647 42.243 27.3751 42.5205 26.6703 42.7538C26.0197 42.9694 25.3459 43.1158 24.6961 43.3345C24.358 43.448 24.2618 43.3265 24.1767 43.0273C23.6716 41.2673 23.4441 39.4687 23.4902 37.642C23.6326 31.9728 25.5058 26.8867 28.6342 22.2318C28.8784 21.8682 29.1441 21.5191 29.4543 21.1942C29.4289 21.2545 29.4129 21.3204 29.3772 21.3735C27.251 24.5838 25.8017 28.0852 25.0572 31.869C24.4232 35.0921 24.3564 38.3185 25.2608 41.5175C25.4159 42.0669 25.4072 42.0636 25.987 42.0282C26.9034 41.9727 27.8197 41.9261 28.736 41.8762C28.744 41.9116 28.7527 41.947 28.7607 41.9832L28.7615 41.984Z" fill="#F9F6F2"/>
<path d="M80.0789 23.8582C81.1504 23.3595 82.2266 22.8712 83.2908 22.3589C84.0163 22.009 84.7314 21.6357 85.4401 21.2528C86.1639 20.8619 86.7494 20.3045 87.2163 19.624C87.7508 18.8445 88.2813 18.0619 88.7952 17.2688C88.8588 17.1706 88.858 16.9712 88.8016 16.8634C88.6854 16.6414 88.5168 16.4467 88.3617 16.2472C87.8733 15.6158 87.2592 15.2852 86.4376 15.3552C85.635 15.4235 84.8276 15.4372 84.0226 15.475C84.0179 15.4412 84.0139 15.4075 84.0091 15.3737C84.2629 15.3343 84.5166 15.294 84.7703 15.257C85.9468 15.0841 87.1216 14.9015 88.3004 14.743C89.4936 14.583 90.5563 14.8701 91.4376 15.7364C91.72 16.014 92.0175 16.2778 92.3444 16.5818C91.7478 17.2833 91.1624 17.9509 90.6008 18.6378C89.0513 20.5337 86.9784 21.5778 84.733 22.3468C83.2726 22.8471 81.8122 23.349 80.351 23.8494C80.269 23.8775 80.1839 23.8968 80.0996 23.9202C80.0924 23.8992 80.0853 23.8791 80.0781 23.8582H80.0789ZM90.0376 16.9808C89.01 18.4198 88.1008 19.7865 86.8758 20.8981C87.6935 20.5643 88.376 20.0519 88.9264 19.377C89.6065 18.5413 90.262 17.6854 90.915 16.828C90.9707 16.7548 90.9794 16.5577 90.9245 16.5006C90.5674 16.1274 90.2134 15.7405 89.8062 15.4276C89.2677 15.0141 88.6313 14.986 88.0586 15.0672C88.7085 15.6954 89.3671 16.3325 90.0376 16.9816V16.9808Z" fill="#F9F6F2"/>
<path d="M38.6875 30.8595C38.7273 29.3151 39.0709 27.6509 40.2004 26.2456C40.6482 25.689 41.2002 25.2788 41.9599 25.3214C42.8762 25.3737 43.3519 26.0116 43.7114 26.754C44.2865 27.9404 44.4122 29.2114 44.2897 30.5064C44.1616 31.8626 43.822 33.1576 43.0146 34.2821C42.8452 34.5186 42.6471 34.7406 42.4316 34.9353C41.4954 35.7799 40.3547 35.6488 39.6277 34.6111C38.8856 33.5518 38.6978 32.3355 38.6875 30.8595ZM39.8671 31.2271C39.8902 31.4845 39.8735 31.9784 39.992 32.4361C40.1471 33.0345 40.3348 33.6491 40.6411 34.1784C41.147 35.0511 42.0219 35.109 42.671 34.336C42.9979 33.9467 43.2715 33.4842 43.4608 33.0112C44.0383 31.5698 44.168 30.06 43.9397 28.5284C43.8315 27.8021 43.6271 27.0959 43.153 26.5054C42.7131 25.9577 42.0864 25.8233 41.5518 26.2633C41.2042 26.5497 40.9012 26.9334 40.6856 27.3331C40.0707 28.4705 39.8854 29.7213 39.8671 31.2271Z" fill="#F9F6F2"/>
<path d="M50.2052 27.6951C48.5093 28.6933 46.8962 29.6425 45.2099 30.6351C46.8127 31.6405 48.3526 32.6058 49.8918 33.571C49.883 33.5968 49.8743 33.6225 49.8655 33.6491C47.9804 33.1512 46.096 32.6533 44.1719 32.1449C44.2323 31.8312 44.3127 31.5497 44.3357 31.2633C44.3858 30.6375 44.3954 30.0085 44.4487 29.3835C44.459 29.262 44.5704 29.0722 44.6698 29.0456C46.4436 28.5743 48.2222 28.123 50 27.6694C50.035 27.6605 50.0771 27.6782 50.2052 27.6951Z" fill="#F9F6F2"/>
<path d="M45.5461 42.4368C45.1007 41.3115 44.6552 40.1862 44.2106 39.0601C43.731 37.8455 43.2569 36.6292 42.7725 35.417C42.681 35.187 42.7041 35.0358 42.8592 34.8122C43.2863 34.1944 43.6482 33.5292 44.0475 32.8632C45.4889 34.6939 46.9636 36.5681 48.4383 38.4415C48.4208 38.4592 48.4025 38.4769 48.385 38.4946C46.9254 37.3443 45.4658 36.1933 44.0062 35.043C43.9815 35.0591 43.9577 35.0752 43.933 35.0905C44.5001 37.5374 45.0665 39.9835 45.6336 42.4304L45.5461 42.4368Z" fill="#F9F6F2"/>
<path d="M46.8079 18.7673C45.9966 21.2327 45.1852 23.6981 44.3739 26.1643C44.4025 26.1804 44.4304 26.1957 44.459 26.2118L49.125 22.8053C49.1417 22.8254 49.1584 22.8455 49.1743 22.8656C47.5906 24.6521 46.0077 26.4394 44.4296 28.2203C44.1933 27.5961 44.0494 26.9414 43.7153 26.4089C43.3701 25.8595 43.4106 25.4605 43.693 24.9111C44.6849 22.9814 45.6163 21.0196 46.5724 19.0714C46.6273 18.9596 46.6965 18.8542 46.7594 18.7464C46.7753 18.7536 46.792 18.7609 46.8079 18.7681V18.7673Z" fill="#F9F6F2"/>
<path d="M131.437 36.6623C130.73 36.6623 130.223 36.1716 130.219 35.4839C130.215 34.7985 130.769 34.2435 131.448 34.2516C132.096 34.2596 132.675 34.8243 132.683 35.4557C132.692 36.1402 132.153 36.6623 131.436 36.6615L131.437 36.6623Z" fill="#F9F6F2"/>
<path d="M79.4481 16.2682C79.2452 16.3759 79.0456 16.4886 78.8396 16.5899C77.9018 17.0516 76.9552 17.4916 75.9045 17.6243C75.5211 17.6726 75.3691 17.4836 75.2904 16.9479C75.2299 16.5384 75.4789 16.5248 75.7605 16.5014C76.9799 16.4017 78.1993 16.2971 79.4178 16.1942C79.4282 16.2191 79.4377 16.2432 79.4481 16.2682Z" fill="#F9F6F2"/>
</g>
<defs>
<clipPath id="clip0_193_1029">
<rect width="164" height="74" fill="white" transform="translate(0.03125 0.0189819)"/>
</clipPath>
</defs>
</svg>
