<svg width="204" height="56" viewBox="0 0 204 56" fill="none" xmlns="http://www.w3.org/2000/svg">
<path fill-rule="evenodd" clip-rule="evenodd" d="M3.23092 0.296509C1.64582 0.296509 0.359375 1.58475 0.359375 3.17204V32.0102H55.7273V3.17204C55.7273 1.58935 54.4408 0.296509 52.8557 0.296509H3.23092ZM55.7273 32.4703H0.359375V52.8659C0.359375 54.4486 1.64582 55.7414 3.23092 55.7414H52.8557C54.4362 55.7414 55.7273 54.4532 55.7273 52.8659V32.4703ZM16.0816 28.6102C16.2976 28.969 16.6743 29.1669 17.0648 29.1669L17.0694 29.1623C17.2716 29.1623 17.4783 29.1117 17.6621 28.9966L17.6681 28.993C17.8737 28.8632 21.0299 26.8724 21.0299 23.4158C21.0299 20.4344 19.3069 18.0972 17.7862 16.0406L17.7851 16.0391C16.5633 14.388 15.4062 12.8242 15.4062 11.2649C15.4062 8.66086 17.5565 7.34502 17.6437 7.29441C18.1905 6.97235 18.3835 6.26842 18.0618 5.72092C17.7402 5.17341 17.0373 4.98478 16.4905 5.30224L16.4881 5.30376C16.3181 5.40571 13.1044 7.33393 13.1044 11.2649C13.1044 13.5838 14.5425 15.5299 15.9346 17.4117C17.3084 19.2704 18.728 21.2442 18.728 23.4204C18.728 25.5593 16.5845 26.9557 16.4716 27.0293L16.4676 27.0321C15.9254 27.3633 15.7554 28.0673 16.0816 28.6102ZM28.041 29.1669C27.6505 29.1669 27.2737 28.969 27.0578 28.6102C26.7316 28.0673 26.9016 27.3633 27.4437 27.0321L27.4478 27.0293C27.5606 26.9557 29.7042 25.5593 29.7042 23.4204C29.7042 21.2442 28.2845 19.2704 26.9108 17.4117C25.5187 15.5299 24.0806 13.5838 24.0806 11.2649C24.0806 7.33393 27.2942 5.40576 27.4642 5.30376L27.4667 5.30224C28.0135 4.98478 28.7164 5.17341 29.038 5.72092C29.355 6.26842 29.1667 6.97235 28.6199 7.29441C28.5326 7.34502 26.3824 8.66086 26.3824 11.2649C26.3824 12.8242 27.5395 14.388 28.7612 16.0391L28.7624 16.0406C30.2831 18.0972 32.006 20.4344 32.006 23.4158C32.006 26.8724 28.8499 28.8632 28.6443 28.993L28.6383 28.9966C28.4545 29.1117 28.2478 29.1623 28.0456 29.1623L28.041 29.1669ZM38.034 28.6102C38.2499 28.969 38.6267 29.1669 39.0172 29.1669L39.0218 29.1623C39.2239 29.1623 39.4307 29.1117 39.6145 28.9966L39.6205 28.993C39.826 28.8632 42.9822 26.8724 42.9822 23.4158C42.9822 20.4344 41.2593 18.0972 39.7385 16.0406L39.7374 16.0391C38.5157 14.388 37.3586 12.8242 37.3586 11.2649C37.3586 8.66086 39.5088 7.34502 39.5961 7.29441C40.1428 6.97235 40.3312 6.26842 40.0142 5.72092C39.6926 5.17341 38.9896 4.98478 38.4429 5.30224L38.4404 5.30376C38.2705 5.40571 35.0568 7.33393 35.0568 11.2649C35.0568 13.5838 36.4948 15.5299 37.887 17.4117C39.2607 19.2704 40.6804 21.2442 40.6804 23.4204C40.6804 25.5593 38.5368 26.9557 38.424 27.0293L38.4199 27.0321C37.8778 27.3633 37.7078 28.0673 38.034 28.6102ZM12.7828 45.5643H43.1338C45.3897 45.5643 47.2275 43.7286 47.2275 41.4696C47.2275 39.2105 45.3897 37.3702 43.1338 37.3702H9.44263C8.8086 37.3702 8.29402 37.8855 8.29402 38.5204C8.29402 39.1553 8.8086 39.6706 9.44263 39.6706H43.1338C44.1262 39.6706 44.9303 40.4758 44.9303 41.4696C44.9303 42.4633 44.1262 43.2639 43.1338 43.2639H12.7828C10.5269 43.2639 8.68914 45.0996 8.68914 47.3586C8.68914 49.6177 10.5269 51.458 12.7828 51.458H44.4662C45.1003 51.458 45.6148 50.9427 45.6148 50.3078C45.6148 49.6729 45.1003 49.1576 44.4662 49.1576H12.7828C11.7904 49.1576 10.9864 48.3524 10.9864 47.3586C10.9864 46.3649 11.7904 45.5643 12.7828 45.5643Z" fill="#F9F6F2"/>
<path d="M72.8812 16.7447C72.6469 16.7447 72.0312 16.7079 72.0312 15.8936V4.8193C72.0312 4.2764 72.2656 3.96814 72.8812 3.96814H76.1479C77.8065 3.96814 79.5754 4.07856 80.9307 5.50483C82.2126 6.86208 82.4837 8.79444 82.4837 10.2207C82.4837 12.4613 81.8358 14.1958 80.8434 15.208C79.364 16.6895 77.3057 16.7447 75.7528 16.7447H72.8858H72.8812ZM73.7496 15.2264H75.0314C77.4665 15.2264 79.0194 15.1896 80.0302 13.4551C80.6459 12.4061 80.7515 10.9982 80.7515 10.2207C80.7515 9.30053 80.6091 8.19633 80.1037 7.29456C79.2538 5.77628 77.8478 5.57844 76.8187 5.50483C76.5109 5.48642 75.8079 5.48642 75.3025 5.48642H73.7496V15.2264Z" fill="#F9F6F2"/>
<path d="M86.2119 8.97372C86.5565 7.94313 87.5811 7.276 88.647 7.276C88.8446 7.276 89.6394 7.276 89.6394 8.09035C89.6394 8.72527 89.134 8.83109 88.8813 8.8679C88.4311 8.94151 87.9624 9.01052 87.4754 9.31878C86.2854 10.1515 86.2854 11.4168 86.2854 12.498V16.0958C86.2854 16.3857 86.2303 16.855 85.4538 16.855C84.6774 16.855 84.6406 16.3489 84.6406 16.0958V8.03514C84.6406 7.8189 84.7141 7.276 85.4355 7.276C86.1568 7.276 86.2119 7.8189 86.2119 8.03514V8.97372Z" fill="#F9F6F2"/>
<path d="M91.9219 12.5165C91.9587 13.3308 92.1379 14.0531 92.6249 14.6467C93.2405 15.4058 93.9802 15.53 94.7016 15.53C96.1259 15.53 96.6313 14.7893 96.9575 14.2832C97.2469 13.7955 97.3388 13.6161 97.7339 13.6161C98.129 13.6161 98.6712 13.8507 98.6712 14.3752C98.6712 14.4488 98.6712 14.4994 98.6528 14.5546C98.5793 14.8997 98.2715 15.2954 98.0739 15.5116C96.8288 16.9195 95.2024 16.9195 94.7016 16.9195C93.53 16.9195 92.3354 16.6848 91.4165 15.6542C90.6033 14.7341 90.2266 13.432 90.2266 12.13C90.2266 9.85257 91.4533 7.19788 94.6464 7.19788C95.0416 7.19788 95.4413 7.23468 95.818 7.3221C96.6312 7.51993 97.3342 7.92021 97.8947 8.67935C98.492 9.5121 98.7952 10.6853 98.7952 11.6975C98.7952 12.4567 98.2163 12.5119 97.982 12.5119H91.9173L91.9219 12.5165ZM97.0999 11.1592C97.0264 9.96759 96.3786 8.64714 94.6648 8.64714C94.2881 8.64714 93.5438 8.68395 92.9143 9.24525C92.193 9.88017 92.0322 10.7451 91.9403 11.1592H97.0999Z" fill="#F9F6F2"/>
<path d="M100.82 8.07208C100.82 7.81903 100.875 7.54758 101.215 7.36815C101.45 7.25773 101.831 7.25773 102.047 7.36815C102.442 7.56598 102.442 7.83743 102.442 8.55977C103.182 7.56598 104.119 7.20251 105.346 7.20251C106.32 7.20251 107.239 7.49237 107.836 8.23311C108.452 9.01065 108.47 9.96763 108.47 10.9246V16.0408C108.47 16.2754 108.397 16.8551 107.639 16.8551C107.496 16.8551 107.349 16.8183 107.207 16.7631C106.862 16.5837 106.811 16.2938 106.811 16.0408V11.7758C106.811 10.8188 106.775 10.6025 106.775 10.4369C106.775 9.94923 106.664 8.62878 104.987 8.62878C103.311 8.62878 102.75 9.85721 102.571 10.69C102.461 11.1593 102.479 11.6285 102.479 12.1162V16.0362C102.479 16.2708 102.405 16.8505 101.647 16.8505C101.505 16.8505 101.358 16.8137 101.215 16.7585C100.871 16.5791 100.82 16.3076 100.82 16.0362V8.06748V8.07208Z" fill="#F9F6F2"/>
<path d="M111.086 8.79435H110.13C109.932 8.79435 109.445 8.72074 109.445 8.09042C109.445 7.4601 109.932 7.38649 110.13 7.38649H111.104V5.2701C111.104 5.03546 111.177 4.49255 111.917 4.49255C112.694 4.49255 112.749 5.01705 112.749 5.2701V7.38649H113.87C114.086 7.38649 114.554 7.4417 114.554 8.09042C114.554 8.73914 114.067 8.79435 113.87 8.79435H112.749V13.386C112.749 14.4718 112.767 14.596 112.822 14.8123C112.946 15.3368 113.291 15.4288 113.778 15.461C114.21 15.4794 114.66 15.5162 114.66 16.1465C114.66 16.7768 114.081 16.8504 113.594 16.8504C111.086 16.8504 111.086 15.4932 111.086 14.0853V8.78975V8.79435Z" fill="#F9F6F2"/>
<path d="M120.193 11.3064C121.167 11.5963 122.917 12.1024 122.917 14.0715C122.917 15.2264 122.32 15.9349 121.782 16.2938C121.098 16.7631 120.142 16.9241 119.311 16.9241C118.787 16.9241 117.505 16.8689 116.586 16.0913C115.755 15.3874 115.594 14.3936 115.594 14.1406C115.594 13.524 116.209 13.3814 116.476 13.3814C116.889 13.3814 117 13.5977 117.092 13.7771C117.344 14.4626 117.363 14.5362 117.487 14.7341C117.9 15.369 118.658 15.6174 119.416 15.6174C120.482 15.6174 121.277 15.0561 121.277 14.2096C121.277 13.271 120.446 13.0364 119.527 12.7649L118.479 12.4567C117.487 12.13 115.952 11.6239 115.952 9.88937C115.952 9.42009 116.131 7.19788 119.237 7.19788C122.343 7.19788 122.775 9.27746 122.775 9.63633C122.775 10.1792 122.288 10.3403 122.017 10.3403C121.622 10.3403 121.511 10.1424 121.24 9.61792C121.08 9.30967 120.593 8.46311 119.164 8.46311C118.948 8.46311 118.461 8.48151 118.116 8.71616C117.808 8.91399 117.592 9.27746 117.592 9.67313C117.592 10.5059 118.314 10.7221 119.145 10.9752L120.193 11.3018V11.3064Z" fill="#F9F6F2"/>
<path d="M126.117 12.5165C126.154 13.3308 126.333 14.0531 126.82 14.6467C127.436 15.4058 128.176 15.53 128.897 15.53C130.321 15.53 130.827 14.7893 131.153 14.2832C131.442 13.7955 131.534 13.6161 131.929 13.6161C132.324 13.6161 132.867 13.8507 132.867 14.3752C132.867 14.4488 132.866 14.4994 132.848 14.5546C132.775 14.8997 132.467 15.2954 132.269 15.5116C131.024 16.9195 129.398 16.9195 128.897 16.9195C127.725 16.9195 126.531 16.6848 125.612 15.6542C124.799 14.7341 124.422 13.432 124.422 12.13C124.422 9.85257 125.649 7.19788 128.842 7.19788C129.237 7.19788 129.637 7.23468 130.013 7.3221C130.827 7.51993 131.53 7.92021 132.09 8.67935C132.687 9.5121 132.991 10.6853 132.991 11.6975C132.991 12.4567 132.412 12.5119 132.177 12.5119H126.113L126.117 12.5165ZM131.295 11.1592C131.222 9.96759 130.574 8.64714 128.86 8.64714C128.483 8.64714 127.739 8.68395 127.11 9.24525C126.388 9.88017 126.228 10.7451 126.136 11.1592H131.295Z" fill="#F9F6F2"/>
<path d="M76.8978 33.188C76.8059 33.4226 76.6451 33.7309 75.9238 33.7309C75.2025 33.7309 75.0417 33.441 74.9498 33.188L70.6907 21.9113C70.6539 21.7825 70.6172 21.6582 70.6172 21.5156C70.6172 21.0831 71.0307 20.7565 71.5545 20.7565C72.0782 20.7565 72.239 21.0831 72.3309 21.3178L75.3265 29.4337C75.6343 30.248 75.7033 30.4827 75.9422 31.3476C76.2316 30.3539 76.2684 30.1744 76.8978 28.4215L79.4983 21.304C79.5902 21.0693 79.7694 20.7611 80.2564 20.7611C80.6515 20.7611 81.1385 21.0141 81.1385 21.5202C81.1385 21.6444 81.1385 21.7549 81.0834 21.8837L76.8978 33.1972V33.188Z" fill="#F9F6F2"/>
<path d="M84.0304 32.9167C84.0304 33.133 83.9569 33.7311 83.1988 33.7311C82.7301 33.7311 82.3672 33.4596 82.3672 32.9167V21.548C82.3672 21.3318 82.4591 20.7521 83.1988 20.7521C83.9385 20.7521 84.0304 21.3318 84.0304 21.548V32.9167Z" fill="#F9F6F2"/>
<path d="M93.812 32.4841C92.7093 33.6941 91.3585 33.8045 90.4902 33.8045C89.5529 33.8045 88.2527 33.6803 87.2235 32.5393C86.1025 31.3109 86.0703 29.65 86.0703 28.9783C86.0703 28.1133 86.1622 26.595 87.1914 25.4172C88.3124 24.1704 89.8102 24.0599 90.5821 24.0599C93.2331 24.0599 95.002 25.7577 95.002 28.8494C95.002 29.6638 94.9101 31.2511 93.812 32.4795V32.4841ZM92.622 31.4903C93.2515 30.676 93.2882 29.5212 93.2882 28.9598C93.2882 27.2069 92.7093 25.454 90.5086 25.454C90.0216 25.454 89.0659 25.5276 88.3813 26.4846C87.9127 27.1701 87.7657 28.1271 87.7657 28.9783C87.7657 29.8984 87.9265 30.8922 88.4319 31.5455C88.7948 31.9964 89.4978 32.4657 90.5269 32.4657C91.3402 32.4657 92.135 32.139 92.622 31.4903Z" fill="#F9F6F2"/>
<path d="M98.2891 29.3924C98.3259 30.2068 98.505 30.9291 98.9921 31.5226C99.6077 32.2818 100.347 32.406 101.069 32.406C102.493 32.406 102.998 31.6653 103.325 31.1592C103.614 30.6715 103.706 30.492 104.101 30.492C104.496 30.492 105.038 30.7267 105.038 31.2512C105.038 31.3248 105.038 31.3754 105.02 31.4306C104.946 31.7757 104.639 32.1714 104.441 32.3876C103.196 33.7955 101.57 33.7955 101.069 33.7955C99.8972 33.7955 98.7026 33.5608 97.7837 32.5302C96.9705 31.61 96.5938 30.308 96.5938 29.006C96.5938 26.7285 97.8205 24.0739 101.014 24.0739C101.409 24.0739 101.808 24.1107 102.185 24.1981C102.998 24.3959 103.701 24.7962 104.262 25.5553C104.859 26.3881 105.162 27.5613 105.162 28.5735C105.162 29.3326 104.584 29.3878 104.349 29.3878H98.2845L98.2891 29.3924ZM103.467 28.0352C103.394 26.8436 102.746 25.5231 101.032 25.5231C100.655 25.5231 99.9109 25.5599 99.2815 26.1212C98.5602 26.7561 98.3994 27.6211 98.3075 28.0352H103.467Z" fill="#F9F6F2"/>
<path d="M108.759 25.8497C109.103 24.8191 110.133 24.152 111.194 24.152C111.391 24.152 112.186 24.152 112.186 24.9663C112.186 25.6012 111.681 25.7071 111.428 25.7439C110.978 25.8175 110.509 25.8865 110.022 26.1948C108.832 27.0275 108.832 28.2927 108.832 29.3739V32.9718C108.832 33.2617 108.777 33.731 108.001 33.731C107.224 33.731 107.188 33.2249 107.188 32.9718V24.9111C107.188 24.6949 107.261 24.152 107.982 24.152C108.704 24.152 108.759 24.6949 108.759 24.9111V25.8497Z" fill="#F9F6F2"/>
<path d="M115.797 28.9599C116.302 30.4782 116.32 30.676 116.481 31.6514C116.61 30.9106 116.697 30.3861 117.363 28.4354L118.572 24.6949C118.645 24.4786 118.788 24.152 119.33 24.152C120.051 24.152 120.23 24.6581 120.23 24.8927C120.23 25.0031 120.212 25.109 120.175 25.2194L117.322 33.2249C117.23 33.4595 117.088 33.731 116.454 33.731C115.82 33.731 115.677 33.4595 115.585 33.2249L112.769 25.2746C112.732 25.1504 112.695 25.0399 112.695 24.9111C112.695 24.4602 113.109 24.152 113.651 24.152C114.138 24.152 114.299 24.4786 114.372 24.7133L115.778 28.9599H115.797Z" fill="#F9F6F2"/>
<path d="M122.727 29.3924C122.763 30.2068 122.943 30.9291 123.43 31.5226C124.045 32.2818 124.785 32.406 125.506 32.406C126.931 32.406 127.436 31.6653 127.762 31.1592C128.052 30.6715 128.143 30.492 128.539 30.492C128.934 30.492 129.476 30.7267 129.476 31.2512C129.476 31.3248 129.476 31.3754 129.457 31.4306C129.384 31.7757 129.076 32.1714 128.879 32.3876C127.633 33.7955 126.007 33.7955 125.506 33.7955C124.335 33.7955 123.14 33.5608 122.221 32.5302C121.408 31.61 121.031 30.308 121.031 29.006C121.031 26.7285 122.258 24.0739 125.451 24.0739C125.846 24.0739 126.246 24.1107 126.623 24.1981C127.436 24.3959 128.139 24.7962 128.699 25.5553C129.297 26.3881 129.6 27.5613 129.6 28.5735C129.6 29.3326 129.021 29.3878 128.787 29.3878H122.722L122.727 29.3924ZM127.905 28.0352C127.831 26.8436 127.183 25.5231 125.469 25.5231C125.093 25.5231 124.348 25.5599 123.719 26.1212C122.998 26.7561 122.837 27.6211 122.745 28.0352H127.905Z" fill="#F9F6F2"/>
<path d="M133.188 25.8497C133.533 24.8191 134.558 24.152 135.624 24.152C135.821 24.152 136.616 24.152 136.616 24.9663C136.616 25.6012 136.111 25.7071 135.858 25.7439C135.408 25.8175 134.939 25.8865 134.452 26.1948C133.262 27.0275 133.262 28.2927 133.262 29.3739V32.9718C133.262 33.2617 133.207 33.731 132.43 33.731C131.654 33.731 131.617 33.2249 131.617 32.9718V24.9111C131.617 24.6949 131.691 24.152 132.412 24.152C133.133 24.152 133.188 24.6949 133.188 24.9111V25.8497Z" fill="#F9F6F2"/>
<path d="M146.925 33.1696C146.834 33.4227 146.673 33.7309 145.988 33.7309C145.267 33.7309 145.106 33.4227 145.033 33.1512L143.608 28.2191C143.392 27.4784 143.319 26.8986 143.282 26.5766C143.209 27.1747 143.158 27.644 142.905 28.5274L141.66 33.119C141.587 33.3905 141.426 33.7355 140.668 33.7355C139.91 33.7355 139.799 33.4089 139.712 33.1558L137.204 25.2423C137.167 25.1319 137.148 25.0261 137.148 24.8973C137.148 24.5338 137.475 24.1565 138.067 24.1565C138.609 24.1565 138.77 24.5338 138.844 24.7685L140.342 29.8984C140.539 30.6576 140.594 31.0532 140.668 31.5593C140.865 30.6023 140.865 30.5839 141.031 29.949L142.437 24.727C142.51 24.4556 142.671 24.1473 143.337 24.1473C144.003 24.1473 144.169 24.474 144.238 24.727L145.593 29.8064C145.791 30.5287 145.919 31.1084 146.007 31.6835C146.117 30.9612 146.167 30.814 146.494 29.5533L147.863 24.727C147.918 24.5108 148.06 24.1473 148.639 24.1473C149.255 24.1473 149.54 24.5108 149.54 24.8697C149.54 24.9801 149.54 25.0859 149.503 25.1963L146.921 33.165L146.925 33.1696Z" fill="#F9F6F2"/>
<path d="M157.697 33.0086C157.678 33.2064 157.642 33.7309 156.975 33.7309C156.668 33.7125 156.396 33.6021 156.291 33.3352C156.236 33.1926 156.217 33.119 156.217 32.4657C155.335 33.6021 154.104 33.8045 153.314 33.8045C151.439 33.8045 150.281 32.6497 150.281 30.9336C150.281 28.785 152.05 28.4399 153.024 28.2421L154.559 27.9154C155.174 27.7912 155.496 27.7176 155.661 27.6624C156.038 27.552 156.167 27.4093 156.167 26.9585C156.167 25.4218 154.614 25.4218 154.292 25.4218C152.721 25.4218 152.45 26.1993 152.289 26.687C152.234 26.9401 152.147 27.2667 151.531 27.2667C150.865 27.2667 150.681 26.8894 150.681 26.5628C150.681 26.1993 150.915 25.7484 151.058 25.5138C151.779 24.4096 153.043 24.0875 154.288 24.0875C155.335 24.0875 156.415 24.2854 157.086 25.0629C157.701 25.7852 157.701 26.7054 157.701 27.5934V33.0132L157.697 33.0086ZM153.998 29.3417C153.69 29.3969 153.332 29.4843 153.079 29.5763C152.808 29.6684 151.995 29.9398 151.995 30.952C151.995 31.9642 152.771 32.4519 153.672 32.4519C154.701 32.4519 155.386 31.8538 155.657 31.4949C156.125 30.8462 156.144 29.995 156.162 28.785C155.818 28.9276 155.694 28.9644 154.935 29.1301L153.998 29.3463V29.3417Z" fill="#F9F6F2"/>
<path d="M161.774 25.8497C162.119 24.8191 163.144 24.152 164.209 24.152C164.407 24.152 165.202 24.152 165.202 24.9663C165.202 25.6012 164.697 25.7071 164.444 25.7439C163.994 25.8175 163.525 25.8865 163.038 26.1948C161.848 27.0275 161.848 28.2927 161.848 29.3739V32.9718C161.848 33.2617 161.793 33.731 161.016 33.731C160.24 33.731 160.203 33.2249 160.203 32.9718V24.9111C160.203 24.6949 160.277 24.152 160.998 24.152C161.719 24.152 161.774 24.6949 161.774 24.9111V25.8497Z" fill="#F9F6F2"/>
<path d="M166.594 24.9295C166.594 24.6765 166.649 24.405 166.989 24.244C167.186 24.1336 167.605 24.1014 167.857 24.244C168.234 24.4234 168.234 24.7133 168.234 25.3298C168.937 24.4602 169.732 24.0646 170.867 24.0646C171.409 24.0646 171.951 24.1566 172.42 24.428C173.067 24.7731 173.32 25.2792 173.449 25.5322C174.152 24.6811 175.002 24.0692 176.371 24.0692C177.271 24.0692 178.195 24.2302 178.861 25.0262C179.477 25.7669 179.509 26.5996 179.509 27.5014V32.9028C179.509 33.1375 179.435 33.7356 178.659 33.7356C178.516 33.7356 178.369 33.6988 178.245 33.6252C177.882 33.4641 177.832 33.1743 177.832 32.9028V28.8541C177.832 28.3112 177.813 27.8051 177.813 27.5152C177.813 26.9171 177.758 25.5276 176.118 25.5276C175.144 25.5276 174.565 26.0521 174.276 26.4846C173.881 27.0827 173.881 27.6762 173.881 28.4354V32.9166C173.881 33.1697 173.825 33.4595 173.485 33.6206C173.325 33.7126 173.141 33.731 173.054 33.731C172.911 33.731 172.764 33.6942 172.622 33.6206C172.277 33.4595 172.227 33.1697 172.227 32.9166V28.3434C172.227 27.4922 172.227 27.3312 172.19 27.0597C172.153 26.7515 172.011 25.523 170.55 25.523C169.81 25.523 169.144 25.7945 168.707 26.48C168.294 27.1287 168.275 27.8005 168.275 28.7758V32.912C168.275 33.0362 168.239 33.1835 168.183 33.3077C168.11 33.4687 167.876 33.7218 167.444 33.7218C166.667 33.7218 166.594 33.1237 166.594 32.9074V24.9203V24.9295Z" fill="#F9F6F2"/>
<path d="M182.815 20.7565C183.339 20.7565 183.826 21.1199 183.826 21.7871C183.826 22.4036 183.431 22.7808 182.815 22.7808C182.168 22.7808 181.805 22.3484 181.805 21.7871C181.805 21.1383 182.255 20.7565 182.815 20.7565ZM183.647 32.9165C183.647 33.0592 183.61 33.2064 183.555 33.3122C183.482 33.4732 183.266 33.7263 182.834 33.7263C182.347 33.7263 182.002 33.418 182.002 32.9119V24.9432C182.002 24.727 182.076 24.1473 182.815 24.1473C183.555 24.1473 183.647 24.727 183.647 24.9432V32.9119V32.9165Z" fill="#F9F6F2"/>
<path d="M186.141 24.9481C186.141 24.695 186.196 24.4236 186.536 24.2441C186.77 24.1337 187.151 24.1337 187.367 24.2441C187.762 24.442 187.762 24.7134 187.762 25.4357C188.502 24.442 189.439 24.0785 190.666 24.0785C191.64 24.0785 192.559 24.3683 193.156 25.1091C193.772 25.8866 193.79 26.8436 193.79 27.8006V32.9167C193.79 33.1514 193.717 33.7311 192.959 33.7311C192.816 33.7311 192.669 33.6943 192.527 33.6391C192.182 33.4596 192.132 33.1698 192.132 32.9167V28.6517C192.132 27.6948 192.095 27.4785 192.095 27.3129C192.095 26.8252 191.985 25.5048 190.308 25.5048C188.631 25.5048 188.07 26.7332 187.891 27.5659C187.781 28.0352 187.799 28.5045 187.799 28.9922V32.9121C187.799 33.1468 187.726 33.7265 186.968 33.7265C186.825 33.7265 186.678 33.6897 186.536 33.6345C186.191 33.455 186.141 33.1836 186.141 32.9121V24.9435V24.9481Z" fill="#F9F6F2"/>
<path d="M203.931 32.392C203.931 34.3612 203.697 35.3182 202.976 35.9899C202.346 36.5696 201.262 36.8733 200.017 36.8733C198.969 36.8733 198.014 36.657 197.384 36.1877C196.755 35.7369 196.318 34.9593 196.318 34.4716C196.318 33.9103 196.805 33.6757 197.187 33.6757C197.729 33.6757 197.908 34.0575 198.055 34.3612C198.216 34.6879 198.289 34.8305 198.418 34.9777C198.813 35.4286 199.718 35.4838 200.132 35.4838C202.277 35.4838 202.351 34.1081 202.388 32.8613L202.406 32.0286C201.993 32.5163 201.322 33.2938 199.682 33.2938C196.975 33.2938 195.836 31.2142 195.836 28.831C195.836 28.2007 195.909 27.5841 196.07 26.9722C196.594 25.1825 197.913 24.0829 199.879 24.0829C200.545 24.0829 201.014 24.2071 201.358 24.3543C202.043 24.6626 202.277 25.0031 202.48 25.3297C202.498 24.7316 202.498 24.6442 202.571 24.497C202.645 24.3681 202.824 24.1703 203.205 24.1703C203.89 24.1703 203.945 24.658 203.945 24.8558V32.392H203.931ZM200.054 25.5091C199.456 25.5091 198.666 25.6886 198.106 26.4845C197.674 27.1195 197.527 27.966 197.527 28.7067C197.527 29.5211 197.669 30.4045 198.106 30.9842C198.469 31.4903 199.098 31.8675 199.911 31.8675C200.724 31.8675 201.501 31.4535 201.896 30.8737C202.383 30.1698 202.42 28.9966 202.42 28.5779C202.42 28.1086 202.42 25.5046 200.054 25.5046V25.5091Z" fill="#F9F6F2"/>
<path d="M77.3547 43.31C78.7238 43.7056 80.8556 44.359 80.8556 47.0505C80.8556 49.9076 78.2736 50.8094 76.1647 50.8094C74.9564 50.8094 73.5826 50.5011 72.7005 49.7972C71.5656 48.8954 71.2578 47.5381 71.2578 47.1931C71.2578 46.4891 71.9791 46.3419 72.287 46.3419C72.8291 46.3419 72.9348 46.6134 73.0083 46.8664C73.1691 47.4645 73.3161 48.1501 74.0926 48.7114C74.8691 49.2727 75.8063 49.3095 76.3301 49.3095C76.7436 49.3095 77.6992 49.2911 78.37 48.785C78.8387 48.4215 79.1465 47.8464 79.1465 47.2115C79.1465 46.4891 78.7514 46.0199 78.4803 45.8036C77.9749 45.3711 77.1801 45.1365 76.206 44.8466L74.8507 44.4648C74.3637 44.3221 73.8031 44.1381 73.408 43.9587C73.0451 43.7976 71.8183 43.1811 71.8183 41.2856C71.8183 39.1876 73.2242 37.6693 76.1509 37.6693C76.9641 37.6693 78.37 37.7613 79.4176 38.6447C80.1573 39.2566 80.6443 40.2872 80.6443 40.7749C80.6443 41.3178 80.2308 41.6076 79.7438 41.6076C79.5462 41.6076 79.3487 41.5708 79.1649 41.2994C79.1097 41.2258 78.9306 40.8301 78.8571 40.6829C78.6227 40.2136 78.0806 39.1094 76.0774 39.1094C75.3928 39.1094 74.7772 39.252 74.3453 39.5603C73.9318 39.8501 73.5872 40.3562 73.5872 41.0785C73.5872 41.7457 73.9502 42.0723 74.0375 42.1459C74.3637 42.4174 75.1401 42.652 75.7144 42.8131L77.3547 43.3008V43.31Z" fill="#F9F6F2"/>
<path d="M83.1484 41.9712C83.1484 41.7366 83.2219 41.1569 83.98 41.1569C84.0535 41.1569 84.2327 41.1569 84.4119 41.2489C84.8254 41.4467 84.8254 41.7918 84.8254 42.3347C85.5468 41.4697 86.4473 41.0695 87.6051 41.0695C89.9161 41.0695 91.6298 42.8408 91.6298 45.9326C91.6298 48.1732 90.6558 50.8095 87.8026 50.8095C86.3048 50.8095 85.6019 50.2114 84.8254 49.5258V53.3031C84.8254 53.5378 84.7519 54.1359 83.9754 54.1359C83.833 54.1359 83.686 54.0991 83.5619 54.0439C83.199 53.846 83.1484 53.5746 83.1484 53.3031V41.9712ZM87.4075 42.4589C85.7122 42.4589 84.7933 43.761 84.7933 45.8359C84.7933 47.9109 85.6616 49.466 87.3937 49.466C88.3494 49.466 88.965 48.9783 89.305 48.509C89.8104 47.8235 89.9207 46.8113 89.9207 45.9602C89.9207 45.0032 89.8472 42.4543 87.4121 42.4543L87.4075 42.4589Z" fill="#F9F6F2"/>
<path d="M94.9141 46.4017C94.9509 47.2161 95.13 47.9384 95.6171 48.5319C96.2327 49.2911 96.9724 49.4153 97.6938 49.4153C99.118 49.4153 99.6234 48.6745 99.9496 48.1684C100.239 47.6808 100.331 47.5013 100.726 47.5013C101.121 47.5013 101.663 47.736 101.663 48.2605C101.663 48.3341 101.663 48.3893 101.645 48.4399C101.571 48.785 101.264 49.1806 101.066 49.3969C99.821 50.8047 98.1946 50.8047 97.6938 50.8047C96.5222 50.8047 95.3276 50.5701 94.4087 49.5395C93.5955 48.6193 93.2188 47.3173 93.2188 46.0152C93.2188 43.7378 94.4455 41.0831 97.6386 41.0831C98.0337 41.0831 98.4335 41.1199 98.8102 41.212C99.6234 41.4098 100.326 41.8101 100.887 42.5692C101.484 43.402 101.787 44.5752 101.787 45.5874C101.787 46.3465 101.209 46.4017 100.974 46.4017H94.9095H94.9141ZM100.092 45.0445C100.019 43.8528 99.3707 42.5324 97.657 42.5324C97.2803 42.5324 96.536 42.5692 95.9065 43.1305C95.1852 43.7654 95.0244 44.6304 94.9325 45.0445H100.092Z" fill="#F9F6F2"/>
<path d="M110.13 47.7544C110.254 47.4093 110.42 47.0505 110.907 47.0505C111.123 47.0505 111.775 47.1793 111.775 47.8096C111.775 48.0627 111.665 48.4399 111.398 48.8954C111.109 49.4015 110.277 50.8094 107.718 50.8094C104.433 50.8094 103.367 48.1869 103.367 45.9325C103.367 45.2101 103.459 44.5062 103.693 43.8345C104.667 41.0878 107.139 41.0878 107.81 41.0878C109.905 41.0878 110.732 41.9711 111.219 42.7671C111.596 43.3652 111.596 43.5814 111.596 43.7057C111.596 44.1749 111.201 44.5016 110.714 44.5016C110.227 44.5016 110.048 44.1565 109.845 43.7425C109.666 43.379 109.179 42.4588 107.75 42.4588C105.839 42.4588 105.099 44.1013 105.099 45.8543C105.099 47.4093 105.568 49.3969 107.75 49.3969C109.391 49.3969 109.864 48.3295 110.13 47.7544Z" fill="#F9F6F2"/>
<path d="M114.026 37.7614C114.55 37.7614 115.037 38.1248 115.037 38.7919C115.037 39.4085 114.642 39.7857 114.026 39.7857C113.379 39.7857 113.016 39.3532 113.016 38.7919C113.016 38.1432 113.466 37.7614 114.026 37.7614ZM114.858 49.9214C114.858 50.064 114.821 50.2113 114.766 50.3171C114.693 50.4781 114.477 50.7312 114.045 50.7312C113.558 50.7312 113.213 50.4229 113.213 49.9168V41.9481C113.213 41.7319 113.287 41.1522 114.026 41.1522C114.766 41.1522 114.858 41.7319 114.858 41.9481V49.9168V49.9214Z" fill="#F9F6F2"/>
<path d="M124.244 50.0135C124.225 50.2113 124.188 50.7358 123.522 50.7358C123.214 50.7174 122.943 50.6116 122.838 50.3401C122.783 50.1975 122.764 50.1239 122.764 49.4752C121.882 50.6116 120.651 50.814 119.86 50.814C117.986 50.814 116.828 49.6592 116.828 47.9385C116.828 45.7899 118.597 45.4448 119.571 45.247L121.106 44.9203C121.721 44.7915 122.043 44.7225 122.208 44.6673C122.585 44.5569 122.714 44.4142 122.714 43.9633C122.714 42.4267 121.161 42.4267 120.839 42.4267C119.268 42.4267 118.997 43.2042 118.836 43.6919C118.781 43.9449 118.693 44.2716 118.078 44.2716C117.412 44.2716 117.228 43.8897 117.228 43.5677C117.228 43.2042 117.462 42.7533 117.605 42.5187C118.326 41.4145 119.589 41.0924 120.834 41.0924C121.882 41.0924 122.962 41.2902 123.633 42.0678C124.248 42.7901 124.248 43.7103 124.248 44.5983V50.0181L124.244 50.0135ZM120.545 46.3466C120.237 46.4018 119.879 46.4892 119.626 46.5812C119.355 46.6732 118.542 46.9447 118.542 47.9523C118.542 48.9599 119.318 49.4522 120.219 49.4522C121.248 49.4522 121.933 48.8541 122.204 48.4952C122.672 47.8465 122.691 46.9953 122.709 45.7853C122.364 45.9279 122.24 45.9647 121.482 46.1303L120.545 46.3466Z" fill="#F9F6F2"/>
<path d="M128.398 49.9261C128.398 50.1423 128.324 50.7404 127.566 50.7404C127.097 50.7404 126.734 50.469 126.734 49.9261V38.5619C126.734 38.3457 126.826 37.766 127.566 37.766C128.306 37.766 128.398 38.3457 128.398 38.5619V49.9261Z" fill="#F9F6F2"/>
<path d="M131.69 37.7614C132.214 37.7614 132.701 38.1248 132.701 38.7919C132.701 39.4085 132.306 39.7857 131.69 39.7857C131.043 39.7857 130.68 39.3532 130.68 38.7919C130.68 38.1432 131.13 37.7614 131.69 37.7614ZM132.522 49.9214C132.522 50.064 132.485 50.2113 132.43 50.3171C132.357 50.4781 132.141 50.7312 131.709 50.7312C131.222 50.7312 130.877 50.4229 130.877 49.9168V41.9481C130.877 41.7319 130.951 41.1522 131.69 41.1522C132.43 41.1522 132.522 41.7319 132.522 41.9481V49.9168V49.9214Z" fill="#F9F6F2"/>
<path d="M138.982 45.1917C139.956 45.4816 141.706 45.9877 141.706 47.9568C141.706 49.1117 141.109 49.8202 140.572 50.1791C139.887 50.6483 138.931 50.814 138.1 50.814C137.576 50.814 136.294 50.7588 135.375 49.9812C134.544 49.2773 134.383 48.2835 134.383 48.0305C134.383 47.4185 134.998 47.2713 135.265 47.2713C135.678 47.2713 135.789 47.4876 135.881 47.667C136.133 48.3525 136.152 48.4261 136.276 48.624C136.689 49.2589 137.447 49.5073 138.205 49.5073C139.271 49.5073 140.066 48.946 140.066 48.0995C140.066 47.1609 139.235 46.9263 138.316 46.6548L137.268 46.3465C136.276 46.0199 134.741 45.5138 134.741 43.7793C134.741 43.31 134.92 41.0878 138.026 41.0878C141.132 41.0878 141.564 43.1674 141.564 43.5262C141.564 44.0691 141.077 44.2302 140.806 44.2302C140.411 44.2302 140.3 44.0323 140.029 43.5078C139.869 43.1996 139.382 42.353 137.953 42.353C137.737 42.353 137.25 42.3714 136.905 42.6061C136.597 42.8039 136.381 43.1674 136.381 43.563C136.381 44.3958 137.103 44.612 137.934 44.8651L138.982 45.1917Z" fill="#F9F6F2"/>
<path d="M143.789 42.6796H142.833C142.635 42.6796 142.148 42.606 142.148 41.9757C142.148 41.3454 142.635 41.2718 142.833 41.2718H143.807V39.16C143.807 38.9253 143.881 38.3824 144.62 38.3824C145.397 38.3824 145.452 38.9069 145.452 39.16V41.2718H146.573C146.789 41.2718 147.257 41.327 147.257 41.9757C147.257 42.6244 146.77 42.6796 146.573 42.6796H145.452V47.2713C145.452 48.3571 145.47 48.4813 145.525 48.6976C145.649 49.2221 145.994 49.3141 146.481 49.3463C146.913 49.3647 147.363 49.4015 147.363 50.0318C147.363 50.6621 146.784 50.7357 146.297 50.7357C143.789 50.7357 143.789 49.3785 143.789 47.9706V42.675V42.6796Z" fill="#F9F6F2"/>
</svg>
