<svg width="128" height="128" viewBox="0 0 128 128" fill="none" xmlns="http://www.w3.org/2000/svg">
<path d="M120.439 0.520508H7.59936C3.70438 0.520508 0.546875 3.67801 0.546875 7.57299V120.413C0.546875 124.308 3.70438 127.465 7.59936 127.465H120.439C124.334 127.465 127.492 124.308 127.492 120.413V7.57299C127.492 3.67801 124.334 0.520508 120.439 0.520508Z" fill="#94C83C"/>
<path d="M120.415 127.988H7.57489C3.39564 127.988 0 124.592 0 120.413V7.57343C0 3.39418 3.39564 -0.00146484 7.57489 -0.00146484H120.425C124.604 -0.00146484 128 3.39418 128 7.57343V120.424C128 124.603 124.604 127.999 120.425 127.999L120.415 127.988ZM7.57489 1.04335C3.97029 1.04335 1.04481 3.96882 1.04481 7.57343V120.424C1.04481 124.018 3.97029 126.954 7.57489 126.954H120.425C124.019 126.954 126.955 124.028 126.955 120.424V7.57343C126.955 3.97927 124.03 1.04335 120.425 1.04335H7.57489Z" fill="white"/>
<path d="M39.0532 66.6057C38.1651 66.6057 37.3083 66.1564 36.8173 65.3415C36.0754 64.1086 36.462 62.5101 37.6949 61.7578C37.7889 61.6951 42.8354 58.498 42.8354 53.556C42.8354 48.614 39.6069 44.1318 36.4829 39.9108C33.3171 35.6375 30.0469 31.2179 30.0469 25.9521C30.0469 16.9771 37.4337 12.5994 37.7471 12.4113C38.9905 11.6904 40.589 12.1187 41.3204 13.3621C42.0518 14.6054 41.613 16.204 40.3696 16.9353C40.1711 17.0503 35.2814 20.0384 35.2814 25.9521C35.2814 29.494 37.9143 33.0463 40.6935 36.7972C44.1518 41.4675 48.0699 46.7752 48.0699 53.5456C48.0699 61.4861 40.7249 66.0206 40.4114 66.2191C39.9935 66.4803 39.5233 66.5953 39.0636 66.5953L39.0532 66.6057Z" fill="white"/>
<path d="M64.0063 66.6057C63.1182 66.6057 62.2614 66.1564 61.7704 65.3415C61.0286 64.1086 61.4151 62.5101 62.648 61.7578C62.7421 61.6951 67.7885 58.498 67.7885 53.556C67.7885 48.614 64.56 44.1318 61.436 39.9108C58.2703 35.6375 55 31.2179 55 25.9521C55 16.9771 62.3868 12.5994 62.7003 12.4113C63.9436 11.6904 65.5422 12.1187 66.2735 13.3621C66.9944 14.6054 66.5661 16.204 65.3227 16.9353C65.1242 17.0503 60.2345 20.0384 60.2345 25.9521C60.2345 29.494 62.8674 33.0463 65.6466 36.7972C69.105 41.4675 73.023 46.7752 73.023 53.5456C73.023 61.4861 65.678 66.0206 65.3645 66.2191C64.9466 66.4803 64.4764 66.5953 64.0167 66.5953L64.0063 66.6057Z" fill="white"/>
<path d="M88.975 66.6057C88.0869 66.6057 87.2302 66.1564 86.7391 65.3415C85.9973 64.1086 86.3839 62.5101 87.6168 61.7578C87.7108 61.6951 92.7573 58.498 92.7573 53.556C92.7573 48.614 89.5288 44.1318 86.4048 39.9108C83.239 35.6375 79.9688 31.2179 79.9688 25.9521C79.9688 16.9771 87.3556 12.5994 87.669 12.4113C88.9123 11.6904 90.5109 12.1187 91.2423 13.3621C91.9632 14.6054 91.5348 16.204 90.2915 16.9353C90.093 17.0503 85.2033 20.0384 85.2033 25.9521C85.2033 29.494 87.8362 33.0463 90.6154 36.7972C94.0737 41.4675 97.9918 46.7752 97.9918 53.5456C97.9918 61.4861 90.6467 66.0206 90.3333 66.2191C89.9154 66.4803 89.4452 66.5953 88.9855 66.5953L88.975 66.6057Z" fill="white"/>
<path d="M29.2859 103.843H98.3063C103.436 103.843 107.616 99.6739 107.616 94.5439C107.616 89.4139 103.436 85.2346 98.3063 85.2346H21.6902C20.2483 85.2346 19.0781 86.4048 19.0781 87.8467C19.0781 89.2885 20.2483 90.4587 21.6902 90.4587H98.3063C100.563 90.4587 102.392 92.2871 102.392 94.5439C102.392 96.8007 100.563 98.6187 98.3063 98.6187H29.2859C24.1559 98.6187 19.9767 102.787 19.9767 107.918C19.9767 113.048 24.1559 117.227 29.2859 117.227H101.336C102.778 117.227 103.948 116.057 103.948 114.615C103.948 113.173 102.778 112.003 101.336 112.003H29.2859C27.0292 112.003 25.2007 110.174 25.2007 107.918C25.2007 105.661 27.0292 103.843 29.2859 103.843Z" fill="white"/>
<path d="M127.493 73.0625H0.171875V74.1073H127.493V73.0625Z" fill="white"/>
</svg>
