<svg width="62" height="81" viewBox="0 0 62 81" fill="none" xmlns="http://www.w3.org/2000/svg">
<path d="M48.394 41.7373H47.7812V42.5556H48.394V41.7373Z" fill="#F9F6F2"/>
<path d="M31.6672 63.8164H30.1172V65.4207H31.6672V63.8164Z" fill="#F9F6F2"/>
<path d="M61.5908 27.5056H59.5852V13.6265C59.5852 12.4679 58.6453 11.5254 57.4909 11.5254H42.4743C42.4795 11.3845 42.4826 11.2425 42.4826 11.0996C42.4826 4.96944 37.521 0 31.4024 0C25.2843 0 20.3228 4.96944 20.3228 11.0996C20.3228 11.2425 20.3258 11.3845 20.3311 11.5254H4.52879C3.84111 11.5254 3.23052 11.8583 2.84709 12.3709C2.58661 12.7216 2.43139 13.1568 2.43139 13.6265V27.5056H0.0078125V39.1259H2.43034V62.8001C2.43034 63.5453 2.57621 64.2176 2.84604 64.829C4.30582 68.1263 9.39157 69.6273 14.7261 71.2023C17.0038 71.8745 19.3597 72.5699 21.5094 73.4215C28.1569 76.0557 30.6307 79.7716 30.6556 79.8092C30.7473 79.9522 30.9054 80.038 31.0744 80.038H31.0819C31.2535 80.0349 31.4129 79.9452 31.5016 79.7979C31.5243 79.7615 33.8374 76.0645 40.5071 73.4215C42.7752 72.5227 45.2604 71.8015 47.6643 71.1052C53.7951 69.3269 59.5852 67.6474 59.5852 63.3656V39.1259H61.5908V27.5056ZM41.799 11.1893C41.799 11.9325 41.72 12.6568 41.5711 13.3551C41.1208 12.4637 40.5643 11.851 39.9651 11.612C39.6515 11.4858 39.1641 11.445 38.6609 11.445C38.0971 11.445 37.5144 11.4962 37.1362 11.5379C36.8602 11.0442 36.2631 10.1163 35.4285 9.59336C34.4043 8.95354 32.3943 9.32617 31.6859 9.4848C31.2225 9.14038 29.9437 8.07885 29.7353 6.72192C29.6532 6.18645 30.1804 5.74393 30.8796 5.22097C31.2203 4.96524 31.5496 4.71892 31.7047 4.42877C33.2071 4.4924 38.4168 5.00491 41.5645 8.99111C41.7178 9.69981 41.799 10.4357 41.799 11.1893ZM32.5018 18.4258C35.2682 16.9729 36.8008 13.5681 37.2126 12.5379C38.0656 12.4439 39.2182 12.3918 39.5943 12.542C40.1363 12.7591 40.7246 13.6746 41.1146 14.8947C39.6236 18.7776 35.8622 21.5404 31.4684 21.5404C29.5585 21.5404 27.7682 21.0186 26.2312 20.1105C27.8171 19.9435 30.4263 19.5145 32.5018 18.4258ZM24.9384 19.2055C23.8662 18.3277 22.9721 17.2369 22.3209 16.0001C23.039 16.046 24.0723 15.952 24.8843 15.2402C25.6385 14.5806 26.1124 13.7632 26.3762 13.1955C27.5253 13.9919 28.8478 13.9595 30.3962 13.0973C31.5579 12.4502 31.9235 11.0975 32.034 10.4336C32.9695 10.2363 34.3462 10.0986 34.8983 10.444C35.5879 10.8762 36.1037 11.7321 36.3059 12.1068C35.9727 12.9439 34.5336 16.2266 32.0371 17.5375C29.4217 18.9101 25.7355 19.1659 24.9384 19.2055ZM30.093 0.931064C30.5429 0.870489 31.0024 0.839218 31.4684 0.839218C35.5827 0.839218 39.1431 3.26179 40.8028 6.75849C37.2489 3.70125 32.6664 3.43402 31.5212 3.41731C31.2452 3.09896 30.8045 2.8829 30.3752 2.67209C30.1201 2.54683 29.8563 2.41842 29.7021 2.30676C29.6157 2.14392 29.8074 1.47484 30.093 0.931064ZM25.1053 3.04052C26.2107 2.17209 27.4952 1.52496 28.8946 1.16383C28.657 1.81721 28.5102 2.66058 29.0872 3.0927C29.3313 3.27644 29.6384 3.42672 29.9345 3.57179C30.1594 3.68245 30.5857 3.89225 30.7442 4.04778C30.6355 4.15213 30.4355 4.30141 30.2804 4.41831C29.5978 4.92977 28.5666 5.70216 28.7465 6.87535C29.0073 8.56524 30.4451 9.80631 31.0474 10.2593C30.9648 10.7478 30.7001 11.7811 29.9105 12.2216C28.4862 13.0128 27.4712 12.9501 26.516 12.0129C25.0694 10.5923 23.5211 7.04653 25.1053 3.04052ZM23.6474 4.43292C22.9223 7.95984 24.2422 10.9962 25.5896 12.492C25.4136 12.9293 24.9873 13.8196 24.2265 14.4856C23.4172 15.1953 22.1847 14.9991 21.8313 14.925C21.3823 13.7653 21.1364 12.5055 21.1364 11.1893C21.1364 8.60907 22.0833 6.24703 23.6474 4.43292ZM3.4327 13.6265C3.4327 13.0211 3.92449 12.5285 4.52879 12.5285H20.4132C21.1133 17.9843 25.7665 22.1991 31.4024 22.1991C37.0384 22.1991 41.6916 17.9843 42.3917 12.5285H57.3686L42.7774 27.5056H3.4327V13.6265ZM3.4327 62.8001V39.1259H31.4557L5.13208 66.1455C4.06512 65.2353 3.43165 64.1506 3.43165 62.8001H3.4327ZM47.238 63.2269H48.5028L48.8938 62.0224L49.2842 63.2269H50.5504L49.527 63.9709L49.9179 65.1789L48.8938 64.4323L47.8704 65.1789L48.2613 63.9709L47.238 63.2269ZM18.7574 65.1789L17.7345 64.4323L16.7112 65.1789L17.1021 63.9709L16.0788 63.2269H17.3436L17.7345 62.0224L18.125 63.2269H19.3912L18.367 63.9709L18.7574 65.1789ZM20.9154 63.2269H22.1812L22.5721 62.0224L22.963 63.2269H24.2278L23.2045 63.9709L23.5954 65.1789L22.5721 64.4323L21.5479 65.1789L21.9396 63.9709L20.9154 63.2269ZM27.1838 61.994V60.0057H29.1697V61.7604H29.9031V60.0057H31.8881V61.7604H32.6214V60.0057H34.6074V61.994H33.6897V65.5546H34.6074V66.5732H27.1838V65.5546H28.2351V61.994H27.1838ZM38.1962 65.1789L38.5867 63.9709L37.5634 63.2269H38.8287L39.2191 62.0224L39.61 63.2269H40.8757L39.8515 63.9709L40.2424 65.1789L39.2191 64.4323L38.1962 65.1789ZM45.7958 44.0965V44.9389H43.9151V44.0965H44.3392V41.869L43.9151 42.2749L43.5505 41.6062L44.3392 40.895H45.4364V44.0965H45.7958ZM43.6662 63.2269L44.0571 62.0224L44.4489 63.2269H45.7124L44.6895 63.9709L45.08 65.1789L44.0571 64.4323L43.0338 65.1789L43.4247 63.9709L42.4005 63.2269H43.6662ZM48.3976 44.0965V43.364H47.6267C47.4035 43.364 47.1297 43.3574 46.9222 43.175C46.6942 42.9681 46.689 42.6935 46.689 42.4713V41.8463C46.689 41.6342 46.6942 41.3879 46.8432 41.1876C47.0484 40.9016 47.3808 40.895 47.5621 40.895H48.5697C48.8374 40.895 49.1916 40.895 49.3917 41.227C49.5126 41.4225 49.5126 41.6469 49.5126 41.8397V43.9422C49.5126 44.1652 49.5126 44.4119 49.3689 44.6236C49.151 44.9376 48.7977 44.9376 48.5465 44.9376H47.7058C47.5223 44.9328 47.3275 44.9275 47.1515 44.8418C46.7733 44.6634 46.7733 44.3135 46.768 44.0734V43.6789H47.7861V44.0965H48.3976ZM52.9137 44.0965V44.9389H50.1066V44.366L51.7069 42.7446V41.7199H51.0671V42.4879H50.0376V41.8126C50.0429 41.583 50.049 41.3254 50.2377 41.1251C50.4324 40.913 50.6888 40.9016 50.9234 40.895H51.8506C52.062 40.9016 52.2673 40.9068 52.4673 41.038C52.7874 41.2449 52.7936 41.583 52.7936 41.8524V42.9681L51.6383 44.0965H52.9137ZM56.1946 44.0235C56.1946 44.2229 56.1946 44.4346 56.0465 44.6349C55.829 44.9389 55.463 44.9389 55.1599 44.9389H54.3545C54.1418 44.9328 53.8732 44.9275 53.6562 44.7438C53.4168 44.5317 53.4168 44.2282 53.4103 43.9715V43.5358H54.4567V44.0965H55.1027V43.0547H53.4679V40.895H56.1374V41.7374H54.5087V42.1498H55.2569C55.4517 42.1498 55.6683 42.1498 55.8517 42.253C56.1841 42.442 56.1894 42.8085 56.1946 43.0547V44.0235ZM13.9208 65.1789L12.8966 64.4323L11.8737 65.1789L12.2641 63.9709L11.2408 63.2269H12.5061L12.8966 62.0224L13.2883 63.2269H14.5532L13.5303 63.9709L13.9208 65.1789ZM60.5342 38.2971H0.921599V28.4273H60.5342V38.2971Z" fill="#F9F6F2"/>
<path d="M5.32031 31.3509H5.74231V35.0502H5.32031V36.3697H7.88352V35.0502H7.48026V33.6943H8.78062V32.5449H7.48026V31.3509H8.42217V32.042H9.92685V30.0305H5.32031V31.3509Z" fill="#F9F6F2"/>
<path d="M14.0844 35.0502H13.1423V31.3509H14.0844V32.0774H15.5449V30.0305H13.0619C12.5692 30.0305 12.0408 30.041 11.6896 30.4709C11.4219 30.8029 11.4219 31.1891 11.4219 31.5661V34.9238C11.4219 35.3642 11.4315 36.0823 12.2556 36.3067C12.5068 36.3697 12.7579 36.3697 13.0174 36.3697H15.6169V34.0355H14.0844V35.0502Z" fill="#F9F6F2"/>
<path d="M23.4026 35.0502H22.4884V33.7214H23.7795V32.5546H22.4884V31.3509H23.4026V32.1058H24.8465V30.0305H20.3828V31.3509H20.7955V35.0502H20.3828V36.3697H24.9456V34.2327H23.4026V35.0502Z" fill="#F9F6F2"/>
<path d="M30.4492 32.3477C30.3242 32.59 30.2884 32.6621 30.1709 32.9123C30.0648 32.6442 30.0377 32.59 29.9207 32.3477L28.6571 30.0305H26.6406V31.3509H27.0608V35.0502H26.6406V36.3697H28.6571V33.3624C28.6571 33.1472 28.6475 33.1109 28.6392 32.9219L30.1626 35.669L31.6411 32.9491C31.6232 33.1472 31.6232 33.2005 31.6232 33.4332V36.3697H33.6668V35.0502H33.254V31.3509H33.6668V30.0305H31.6869L30.4492 32.3477Z" fill="#F9F6F2"/>
<path d="M39.1453 32.3477C39.0204 32.59 38.9837 32.6621 38.8671 32.9123C38.7597 32.6442 38.7326 32.59 38.6169 32.3477L37.352 30.0305H35.3359V31.3509H35.757V35.0502H35.3359V36.3697H37.352V33.3624C37.352 33.2246 37.349 33.1607 37.3446 33.0825L37.3957 33.0304L38.8575 35.669L40.3373 32.9491C40.3185 33.1472 40.3185 33.2005 40.3185 33.4332V36.3697H42.3629V35.0502H41.9502V31.3509H42.3629V30.0305H40.3822L39.1453 32.3477Z" fill="#F9F6F2"/>
<path d="M47.0532 35.0502H46.1382V33.7214H47.4284V32.5546H46.1382V31.3509H47.0532V32.1058H48.4949V30.0305H44.0312V31.3509H44.444V35.0502H44.0312V36.3697H48.5949V34.2327H47.0532V35.0502Z" fill="#F9F6F2"/>
<path d="M54.0865 32.572C54.0865 33.0658 54.0865 33.2005 54.1398 33.7394C54.0145 33.3541 53.9782 33.2456 53.7542 32.8144L52.3382 30.0305H50.3125V31.3509H50.7252V35.0502H50.3125V36.3697H52.2766L52.2404 33.281C52.2307 33.0387 52.2307 32.9394 52.2037 32.688C52.3382 33.1109 52.3827 33.2373 52.7142 33.9008L54.0053 36.3697H56.0222V35.0502H55.6099V31.3509H56.0222V30.0305H54.0865V32.572Z" fill="#F9F6F2"/>
</svg>
