<svg width="128" height="128" viewBox="0 0 128 128" fill="none" xmlns="http://www.w3.org/2000/svg">
<rect width="128" height="128" fill="#232D38"/>
<path d="M101.895 25.1328L101.837 25.993C101.826 26.188 100.53 45.8973 100.53 53.7249C100.53 72.2816 95.4837 86.354 85.0986 96.7392C79.0774 102.76 65.2286 112.325 64.6437 112.733L63.881 113.254L63.1183 112.733C62.5334 112.325 48.6847 102.76 42.6577 96.7392C32.2726 86.354 27.2263 72.2816 27.2263 53.7249C27.2263 45.8973 25.936 26.188 25.9245 25.993L25.8672 25.1328L26.6241 24.7199C27.3582 24.3243 44.7967 15 63.881 15C82.9653 15 100.404 24.3243 101.138 24.7199L101.895 25.1328Z" fill="white"/>
<path d="M101.138 24.7199C100.404 24.3243 82.9653 15 63.881 15C44.7967 15 27.3582 24.3243 26.6241 24.7199L25.8672 25.1328L25.9245 25.993C25.936 26.188 27.2263 45.8973 27.2263 53.7249C27.2263 72.2816 32.2726 86.354 42.6577 96.7392C48.6847 102.76 62.5334 112.325 63.1183 112.733L63.881 113.254L64.6437 112.733C65.2286 112.325 79.0774 102.76 85.0986 96.7392C95.4837 86.354 100.53 72.2816 100.53 53.7249C100.53 45.8973 101.826 26.188 101.837 25.993L101.895 25.1328L101.138 24.7199ZM97.8463 53.7249C97.8463 71.5362 93.0523 84.9835 83.2004 94.8411C78.1369 99.8989 66.9031 107.87 63.881 109.986C60.8532 107.87 49.6251 99.8989 44.5616 94.8411C34.704 84.9835 29.9157 71.5362 29.9157 53.7249C29.9157 46.769 28.9122 30.6379 28.6599 26.6926C32.2038 24.9206 47.6467 17.6895 63.881 17.6895C80.1153 17.6895 95.5525 24.9206 99.1021 26.6926C98.8498 30.6379 97.8463 46.769 97.8463 53.7249Z" fill="#232D38"/>
<path d="M48.025 70.7161C48.8565 70.7161 49.6363 70.848 50.3532 71.1176C51.07 71.3813 51.695 71.7827 52.2226 72.3161C52.7502 72.8494 53.1573 73.5146 53.4555 74.3117C53.7537 75.1087 53.8971 76.0435 53.8971 77.1215C53.8971 78.062 53.7766 78.9336 53.5358 79.7307C53.2949 80.5278 52.9279 81.216 52.4405 81.7951C51.9531 82.3743 51.3395 82.8331 50.6112 83.1657C49.8829 83.4983 49.017 83.6646 48.0307 83.6646H42.4453V70.7219H48.0307L48.025 70.7161ZM47.8242 81.2676C48.2371 81.2676 48.6328 81.1988 49.0228 81.0669C49.407 80.935 49.751 80.7113 50.055 80.4074C50.3589 80.0977 50.5997 79.6963 50.7775 79.2032C50.961 78.71 51.047 78.1021 51.047 77.3911C51.047 76.7373 50.9839 76.1524 50.8578 75.6248C50.7316 75.0973 50.5252 74.65 50.2327 74.2772C49.9403 73.9045 49.5618 73.6178 49.0801 73.4171C48.6041 73.2164 48.0135 73.1189 47.3139 73.1189H45.2839V81.2733H47.8242V81.2676Z" fill="#232D38"/>
<path d="M59.3287 70.7161V83.6588H56.4844V70.7161H59.3287Z" fill="#232D38"/>
<path d="M69.9 80.9751C69.814 81.4797 69.619 81.9557 69.3208 82.3973C69.0169 82.8388 68.5811 83.2058 68.0134 83.504C67.4456 83.8022 66.6772 83.9456 65.7138 83.9456C65.1691 83.9456 64.6472 83.871 64.1369 83.7162C63.6322 83.5671 63.1792 83.332 62.7778 83.0108C62.3764 82.6897 62.061 82.2826 61.8144 81.7779C61.5735 81.279 61.4531 80.6712 61.4531 79.9544V78.8304H64.0279V79.4096C64.0279 79.725 64.0508 80.0117 64.1025 80.2812C64.1483 80.545 64.2343 80.7744 64.3548 80.9579C64.4752 81.1471 64.6415 81.2962 64.8537 81.4052C65.0658 81.5142 65.3411 81.5658 65.6794 81.5658C66.0522 81.5658 66.3446 81.4969 66.5511 81.3651C66.7575 81.2332 66.9066 81.0611 66.9926 80.849C67.0844 80.6368 67.136 80.4074 67.1532 80.1608C67.1704 79.9142 67.1819 79.6734 67.1819 79.444V70.7104H70.0262V79.5759C70.0262 80.0002 69.986 80.4647 69.9 80.9694V80.9751Z" fill="#232D38"/>
<path d="M75.9948 70.7161V76.0836L81.0526 70.7161H84.608L79.5502 75.8256L85.0954 83.6531H81.5228L77.6291 77.8326L76.0005 79.4841V83.6531H73.1562V70.7104H76.0005L75.9948 70.7161Z" fill="#232D38"/>
<path d="M46.525 32.4213H45.7221L40.9453 44.3089H41.7309L43.2448 40.4955H48.9392L50.4359 44.3089H51.2215L46.525 32.4213ZM43.4742 39.8589L46.1235 33.1324H46.1579L48.7041 39.8589H43.4742Z" fill="#232D38"/>
<path d="M60.7926 32.4213V39.5435C60.7926 40.2259 60.7295 40.8338 60.5977 41.3786C60.46 41.9233 60.2421 42.3821 59.9382 42.7663C59.6285 43.1505 59.2328 43.443 58.7397 43.6494C58.2408 43.8559 57.6329 43.9591 56.8989 43.9591C56.3197 43.9591 55.8323 43.8845 55.4252 43.7354C55.018 43.5806 54.6739 43.3856 54.3987 43.1333C54.1234 42.8867 53.9055 42.6 53.7392 42.2846C53.5787 41.9692 53.4582 41.6481 53.3665 41.3212C53.2805 40.9944 53.2231 40.6732 53.2002 40.3636C53.1772 40.0482 53.1658 39.7787 53.1658 39.5435V32.4213H52.4375V39.5435C52.4375 39.8131 52.4432 40.1227 52.4662 40.4668C52.4891 40.8223 52.5522 41.1836 52.6497 41.5506C52.7529 41.9233 52.8963 42.2904 53.0855 42.6631C53.2747 43.0244 53.5328 43.3512 53.8596 43.6322C54.1865 43.9189 54.5994 44.1483 55.0983 44.3261C55.6029 44.5039 56.1993 44.5899 56.8989 44.5899C57.7878 44.5899 58.5275 44.458 59.1239 44.1999C59.7145 43.9361 60.1905 43.5806 60.546 43.1276C60.9016 42.6688 61.1539 42.1413 61.303 41.5277C61.4521 40.9141 61.5266 40.2546 61.5266 39.5435V32.4213H60.7926Z" fill="#232D38"/>
<path d="M62.9062 32.4213V33.0521H67.0867V44.3089H67.8207V33.0521H72.0183V32.4213H62.9062Z" fill="#232D38"/>
<path d="M83.0882 35.9251C82.8359 35.1624 82.4632 34.5029 81.9815 33.941C81.4941 33.379 80.9091 32.9432 80.2095 32.6163C79.5099 32.2952 78.7128 32.1346 77.824 32.1346C76.9351 32.1346 76.1381 32.2952 75.4384 32.6163C74.7274 32.9432 74.1367 33.379 73.655 33.941C73.1733 34.5029 72.8006 35.1624 72.5483 35.9251C72.2902 36.6821 72.1641 37.4963 72.1641 38.3623C72.1641 39.2282 72.2902 40.0425 72.5483 40.7994C72.8006 41.5621 73.1733 42.2273 73.655 42.7835C74.1367 43.3455 74.7274 43.7871 75.4384 44.1082C76.1381 44.4293 76.9351 44.5899 77.824 44.5899C78.7128 44.5899 79.5099 44.4293 80.2095 44.1082C80.9091 43.7871 81.4941 43.3455 81.9815 42.7835C82.4632 42.2273 82.8359 41.5621 83.0882 40.7994C83.3463 40.0425 83.4724 39.2282 83.4724 38.3623C83.4724 37.4963 83.3463 36.6821 83.0882 35.9251ZM82.4058 40.5299C82.1822 41.2065 81.8611 41.7972 81.4424 42.3018C81.0181 42.8065 80.502 43.2079 79.8999 43.5061C79.292 43.81 78.6039 43.9591 77.824 43.9591C77.0441 43.9591 76.356 43.81 75.7424 43.5061C75.1345 43.2079 74.6184 42.8065 74.1941 42.3018C73.7754 41.7972 73.4486 41.2065 73.2307 40.5299C73.007 39.8532 72.8981 39.1307 72.8981 38.3623C72.8981 37.5938 73.007 36.877 73.2307 36.2004C73.4486 35.5237 73.7754 34.9273 74.1941 34.4227C74.6184 33.918 75.1345 33.5166 75.7424 33.2184C76.356 32.9202 77.0498 32.7654 77.824 32.7654C78.5981 32.7654 79.292 32.9202 79.8999 33.2184C80.502 33.5166 81.0181 33.918 81.4424 34.4227C81.8611 34.9273 82.1822 35.5237 82.4058 36.2004C82.6295 36.877 82.7384 37.5996 82.7384 38.3623C82.7384 39.1249 82.6295 39.8532 82.4058 40.5299Z" fill="#232D38"/>
<path d="M45.8321 65.5322L40.9922 50.5767H44.3641L47.6958 61.0937H47.7359L51.1078 50.5767H54.5026L49.5366 65.5322H45.8321Z" fill="#232D38"/>
<path d="M62.987 50.5767L68.5781 65.5322H65.1604L64.0307 62.2004H58.4396L57.2697 65.5322H53.9609L59.6151 50.5767H62.987ZM63.1762 59.7518L61.2896 54.2639H61.2495L59.2997 59.7518H63.1762Z" fill="#232D38"/>
<path d="M73.8567 50.5767L80.1015 60.612H80.1416V50.5767H83.2211V65.5322H79.9352L73.7133 55.5198H73.6732V65.5322H70.5938V50.5767H73.8624H73.8567Z" fill="#232D38"/>
<path d="M57.4435 91.7674H57.4321L56.6694 92.1803L56.5547 91.7273L57.5123 91.2169H58.017V95.5923H57.4435V91.7731V91.7674Z" fill="#232D38"/>
<path d="M59.9587 95.1736C60.0848 95.1851 60.2339 95.1736 60.4346 95.1507C60.7787 95.1048 61.0998 94.9615 61.3522 94.7263C61.6389 94.4626 61.8511 94.0784 61.9313 93.5623H61.9084C61.6676 93.8604 61.3177 94.0325 60.8762 94.0325C60.0906 94.0325 59.5859 93.4418 59.5859 92.6963C59.5859 91.8706 60.1823 91.1423 61.0769 91.1423C61.9715 91.1423 62.522 91.8706 62.522 92.9831C62.522 93.9465 62.2009 94.6174 61.7708 95.036C61.4324 95.3629 60.9679 95.5693 60.4977 95.6209C60.2798 95.6553 60.0963 95.6611 59.9529 95.6553V95.1736H59.9587ZM60.1766 92.6562C60.1766 93.201 60.5092 93.5852 61.0196 93.5852C61.4152 93.5852 61.7249 93.3902 61.8797 93.1264C61.9141 93.0748 61.9313 93.006 61.9313 92.9085C61.9313 92.163 61.6561 91.5896 61.0368 91.5896C60.5321 91.5896 60.1766 92.0311 60.1766 92.6505V92.6562Z" fill="#232D38"/>
<path d="M63.0156 94.4798C63.0156 93.9293 63.3425 93.5393 63.8815 93.3099V93.287C63.3884 93.0576 63.1819 92.6791 63.1819 92.3064C63.1819 91.6125 63.7668 91.1423 64.5353 91.1423C65.384 91.1423 65.8083 91.6756 65.8083 92.2204C65.8083 92.5931 65.6248 92.9888 65.0858 93.2411V93.2641C65.6305 93.482 65.9689 93.8604 65.9689 94.3937C65.9689 95.1564 65.3151 95.6668 64.4836 95.6668C63.5661 95.6668 63.0156 95.122 63.0156 94.4798ZM65.3725 94.4511C65.3725 93.9178 64.9998 93.6655 64.4091 93.4934C63.8987 93.6425 63.6235 93.9751 63.6235 94.3937C63.6005 94.8353 63.9389 95.2252 64.5009 95.2252C65.0628 95.2252 65.3782 94.8926 65.3782 94.4454L65.3725 94.4511ZM63.7439 92.2663C63.7439 92.7021 64.0765 92.9372 64.5754 93.0748C64.9539 92.9487 65.2406 92.6791 65.2406 92.2835C65.2406 91.9337 65.0342 91.5724 64.5009 91.5724C64.0077 91.5724 63.7382 91.8935 63.7382 92.272L63.7439 92.2663Z" fill="#232D38"/>
<path d="M69.0144 91.6355C68.8939 91.6298 68.7391 91.6355 68.5671 91.6642C67.6381 91.819 67.1449 92.5014 67.0474 93.2182H67.0704C67.2768 92.943 67.6438 92.7136 68.1255 92.7136C68.8997 92.7136 69.4444 93.2698 69.4444 94.1243C69.4444 94.9271 68.8997 95.6668 67.9936 95.6668C67.0876 95.6668 66.4453 94.9386 66.4453 93.8031C66.4453 92.943 66.755 92.2606 67.1851 91.8305C67.5463 91.4749 68.0338 91.2513 68.5843 91.1825C68.762 91.1538 68.9054 91.1481 69.0144 91.1481V91.6298V91.6355ZM68.8481 94.1587C68.8481 93.5336 68.4925 93.1551 67.9477 93.1551C67.5922 93.1551 67.2596 93.3788 67.099 93.6942C67.0589 93.763 67.0302 93.849 67.0302 93.958C67.0417 94.6805 67.3743 95.2081 67.9936 95.2081C68.504 95.2081 68.8481 94.7837 68.8481 94.1587Z" fill="#232D38"/>
</svg>
