<svg width="128" height="128" viewBox="0 0 128 128" fill="none" xmlns="http://www.w3.org/2000/svg">
<g clip-path="url(#clip0_268_1096)">
<path d="M0 6.90027C0 3.08935 3.08936 0 6.90027 0H121.1C124.911 0 128 3.08936 128 6.90027V121.1C128 124.911 124.911 128 121.1 128H6.90027C3.08935 128 0 124.911 0 121.1V6.90027Z" fill="#CA9A5D"/>
<path d="M41.5547 61.4773V54.6736H35.1498V61.4773H31.7949V45.4769H35.1498V51.7644H41.5547V45.4769H44.9096V61.4773H41.5547Z" fill="#EEE9E3"/>
<path d="M52.1893 49.5591C51.2195 50.607 50.7347 51.913 50.7347 53.4771C50.7347 55.0411 51.2117 56.355 52.1658 57.4185C53.1355 58.4664 54.3398 58.9904 55.7788 58.9904C57.2177 58.9904 58.422 58.4664 59.3918 57.4185C60.3615 56.355 60.8463 55.0411 60.8463 53.4771C60.8463 51.913 60.3771 50.607 59.4387 49.5591C58.5159 48.4955 57.3037 47.9638 55.8022 47.9638C54.3633 47.9638 53.159 48.4955 52.1893 49.5591ZM47.3094 53.4771C47.3094 51.1623 48.1227 49.1681 49.7493 47.4945C51.3759 45.8054 53.4014 44.9608 55.8257 44.9608C57.5305 44.9608 59.032 45.3674 60.3302 46.1807C61.644 46.9784 62.6294 48.0185 63.2863 49.301C63.9432 50.5836 64.2716 51.9756 64.2716 53.4771C64.2716 55.8388 63.4583 57.8486 61.8317 59.5065C60.2207 61.1644 58.2109 61.9934 55.8022 61.9934C54.6761 61.9934 53.636 61.8213 52.6819 61.4773C51.7279 61.1488 50.9224 60.703 50.2655 60.14C49.6242 59.5769 49.0768 58.9278 48.6232 58.1927C48.1696 57.442 47.8333 56.6756 47.6144 55.8936C47.411 55.0959 47.3094 54.2904 47.3094 53.4771Z" fill="#EEE9E3"/>
<path d="M81.5638 45.4769L83.5345 61.4773H80.2969L79.5227 53.6178C79.3976 52.4292 79.2881 51.2561 79.1942 50.0987H79.0535C79.0535 50.1143 78.9205 50.5992 78.6546 51.5533C78.4044 52.5074 78.2167 53.2034 78.0916 53.6413L75.7689 61.4773H73.4228L71.0533 53.524C70.5841 51.9912 70.2791 50.8495 70.1383 50.0987H69.9506C69.9194 50.8025 69.8333 51.9287 69.6926 53.4771L68.8714 61.4773H65.845L67.7453 45.4769H71.4521L73.7982 53.0313C74.1736 54.2357 74.4551 55.2132 74.6428 55.9639H74.7367C74.8774 55.4165 75.159 54.439 75.5813 53.0313L77.8804 45.4769H81.5638Z" fill="#EEE9E3"/>
<path d="M95.4824 45.4769V48.3861H89.2887V51.8348H95.2712V54.6032H89.2887V58.5681H95.7404V61.4773H85.9338V45.4769H95.4824Z" fill="#EEE9E3"/>
<path d="M30.2322 66.5227V69.4319H24.0151V73.2795H29.9976V76.0479H24.0151V82.5231H20.6602V66.5227H30.2322Z" fill="#EEE9E3"/>
<path d="M32.7801 82.5231V66.5227H36.135V79.6139H42.5868V82.5231H32.7801Z" fill="#EEE9E3"/>
<path d="M48.1111 70.6049C47.1414 71.6528 46.6565 72.9588 46.6565 74.5229C46.6565 76.087 47.1336 77.4008 48.0876 78.4643C49.0573 79.5123 50.2617 80.0362 51.7006 80.0362C53.1395 80.0362 54.3439 79.5123 55.3136 78.4643C56.2833 77.4008 56.7682 76.087 56.7682 74.5229C56.7682 72.9588 56.2989 71.6528 55.3605 70.6049C54.4377 69.5414 53.2256 69.0096 51.7241 69.0096C50.2851 69.0096 49.0808 69.5414 48.1111 70.6049ZM43.2312 74.5229C43.2312 72.2081 44.0445 70.2139 45.6711 68.5404C47.2978 66.8512 49.3232 66.0066 51.7475 66.0066C53.4524 66.0066 54.9539 66.4132 56.252 67.2266C57.5658 68.0242 58.5512 69.0643 59.2081 70.3468C59.865 71.6294 60.1935 73.0214 60.1935 74.5229C60.1935 76.8846 59.3801 78.8944 57.7535 80.5524C56.1425 82.2103 54.1327 83.0392 51.7241 83.0392C50.5979 83.0392 49.5578 82.8672 48.6038 82.5231C47.6497 82.1946 46.8442 81.7489 46.1873 81.1858C45.546 80.6227 44.9986 79.9737 44.545 79.2385C44.0915 78.4878 43.7552 77.7214 43.5362 76.9394C43.3329 76.1417 43.2312 75.3362 43.2312 74.5229Z" fill="#EEE9E3"/>
<path d="M66.6232 70.6049C65.6535 71.6528 65.1686 72.9588 65.1686 74.5229C65.1686 76.087 65.6457 77.4008 66.5998 78.4643C67.5695 79.5123 68.7738 80.0362 70.2127 80.0362C71.6517 80.0362 72.856 79.5123 73.8257 78.4643C74.7954 77.4008 75.2803 76.087 75.2803 74.5229C75.2803 72.9588 74.8111 71.6528 73.8726 70.6049C72.9498 69.5414 71.7377 69.0096 70.2362 69.0096C68.7973 69.0096 67.5929 69.5414 66.6232 70.6049ZM61.7433 74.5229C61.7433 72.2081 62.5567 70.2139 64.1833 68.5404C65.8099 66.8512 67.8354 66.0066 70.2597 66.0066C71.9645 66.0066 73.466 66.4132 74.7642 67.2266C76.078 68.0242 77.0633 69.0643 77.7202 70.3468C78.3771 71.6294 78.7056 73.0214 78.7056 74.5229C78.7056 76.8846 77.8923 78.8944 76.2657 80.5524C74.6547 82.2103 72.6449 83.0392 70.2362 83.0392C69.1101 83.0392 68.07 82.8672 67.1159 82.5231C66.1618 82.1946 65.3563 81.7489 64.6994 81.1858C64.0582 80.6227 63.5107 79.9737 63.0572 79.2385C62.6036 78.4878 62.2673 77.7214 62.0483 76.9394C61.845 76.1417 61.7433 75.3362 61.7433 74.5229Z" fill="#EEE9E3"/>
<path d="M88.8656 75.7663L93.8159 82.5231H89.8275L85.4873 76.2355H84.4315V82.5231H81.0766V66.5227H86.0503C88.1618 66.5227 89.7024 66.9763 90.6721 67.8835C91.6418 68.7906 92.1267 69.9637 92.1267 71.4026C92.1267 72.5131 91.8217 73.4515 91.2117 74.2179C90.6017 74.9843 89.8197 75.5004 88.8656 75.7663ZM88.6779 71.5434C88.6779 70.8083 88.4668 70.2374 88.0445 69.8307C87.6222 69.4241 87.0122 69.2207 86.2146 69.2207H84.4315V73.7722H86.238C86.9888 73.7722 87.5831 73.5688 88.021 73.1622C88.459 72.7555 88.6779 72.2159 88.6779 71.5434Z" fill="#EEE9E3"/>
<path d="M94.9994 69.4319V66.5227H106.964V69.2677L98.8001 79.6139H107.34V82.5231H94.6005V79.8016L102.741 69.4319H94.9994Z" fill="#EEE9E3"/>
<path fill-rule="evenodd" clip-rule="evenodd" d="M107.266 93.5771H94.6337V90.817H107.266V93.5771Z" fill="#EEE9E3"/>
</g>
<defs>
<clipPath id="clip0_268_1096">
<rect width="128" height="128" fill="white"/>
</clipPath>
</defs>
</svg>
