<svg width="171" height="28" viewBox="0 0 171 28" fill="none" xmlns="http://www.w3.org/2000/svg">
<path d="M16.3713 8.51828L13.7703 11.0595C13.6438 11.1831 13.4469 11.1831 13.3134 11.0595C11.1974 9.2188 7.95679 9.29462 5.92521 11.2795C3.89368 13.2645 3.82338 16.4304 5.70731 18.4911C5.82681 18.6213 5.82681 18.8138 5.70731 18.9374L3.10635 21.4786C2.97279 21.6092 2.75485 21.6092 2.62835 21.4786C-0.92165 17.756 -0.844304 11.9112 2.86735 8.28464C6.586 4.65145 12.5682 4.57604 16.3713 8.04441C16.5048 8.16803 16.5119 8.38807 16.3713 8.51169V8.51828Z" fill="#F9F6F2"/>
<path d="M13.4188 11.2437C13.5524 11.1131 13.7703 11.1131 13.8968 11.2437C17.4468 14.9663 17.3695 20.8111 13.6508 24.4373C9.93212 28.0639 3.8585 28.1393 0.0554501 24.5885C-0.0289 24.5061 -0.0289 24.3689 0.0554501 24.2865L2.74781 21.6558C2.87436 21.5322 3.07116 21.5322 3.20475 21.6558C5.32068 23.4965 8.56134 23.4211 10.5859 21.4428C12.6104 19.4649 12.6877 16.2915 10.8108 14.2242C10.6913 14.094 10.6913 13.9016 10.8108 13.7779L13.4118 11.2367L13.4188 11.2437Z" fill="#F9F6F2"/>
<path d="M31.4567 25.4419C26.6132 25.4419 23.0351 23.3676 22.7891 19.3565C22.7891 19.1505 23 18.9444 23.2109 18.9444H26.5008C26.7117 18.9444 26.9223 19.1163 26.9223 19.3565C27.0983 21.6711 28.6588 22.6736 31.4497 22.6736C33.8187 22.6736 35.3087 21.7399 35.3087 20.0846C35.3087 16.142 23.1757 19.6379 23.1757 12.3097C23.1757 8.71776 26.1493 6.81525 30.7817 6.81525C35.4142 6.81525 38.3526 8.61474 38.7041 12.2409C38.7391 12.447 38.5286 12.653 38.3176 12.653H35.2032C34.9222 12.653 34.7466 12.4816 34.7112 12.2409C34.3951 10.476 33.0452 9.50728 30.7113 9.50728C28.5887 9.50728 27.2458 10.2696 27.2458 11.9937C27.2458 15.8329 39.3791 12.1997 39.3791 19.7344C39.3791 23.3606 35.9132 25.4349 31.4567 25.4349V25.4419Z" fill="#F9F6F2"/>
<path d="M47.9547 25.4419C44.1377 25.4419 41.7617 22.9555 41.7617 18.4565V14.7961L41.6562 7.63936C41.6562 7.43333 41.8672 7.22729 42.0782 7.22729H45.5437C45.7547 7.22729 45.9652 7.43333 45.9652 7.63936L45.8602 14.7961V18.3535C45.8602 20.8741 47.2731 22.1932 49.1851 22.1932C51.3431 22.1932 53.3256 20.4279 53.6771 16.7329V14.7961L53.6416 7.63936C53.6416 7.43333 53.8526 7.22729 54.0636 7.22729H57.5645C57.7751 7.22729 57.986 7.43333 57.986 7.63936L57.8105 15.5857L57.951 24.6037C57.951 24.8098 57.74 25.0158 57.5291 25.0158H54.2391C54.0286 25.0158 53.8176 24.8098 53.8176 24.6037L53.9231 22.4264C52.7211 24.0887 50.6681 25.4349 47.9477 25.4349L47.9547 25.4419Z" fill="#F9F6F2"/>
<path d="M69.2143 25.4419C64.3709 25.4419 60.7929 23.3676 60.5469 19.3565C60.5469 19.1505 60.7579 18.9444 60.9684 18.9444H64.2584C64.4693 18.9444 64.6803 19.1163 64.6803 19.3565C64.8559 21.6711 66.4164 22.6736 69.2073 22.6736C71.5763 22.6736 73.0667 21.7399 73.0667 20.0846C73.0667 16.142 60.9334 19.6379 60.9334 12.3097C60.9334 8.71776 63.9069 6.81525 68.5393 6.81525C73.1722 6.81525 76.1102 8.61474 76.4617 12.2409C76.4972 12.447 76.2862 12.653 76.0752 12.653H72.9612C72.6798 12.653 72.5042 12.4816 72.4692 12.2409C72.1527 10.476 70.8032 9.50728 68.4693 9.50728C66.3463 9.50728 65.0038 10.2696 65.0038 11.9937C65.0038 15.8329 77.1367 12.1997 77.1367 19.7344C77.1367 23.3606 73.6712 25.4349 69.2143 25.4349V25.4419Z" fill="#F9F6F2"/>
<path d="M89.2982 24.3359C89.2982 24.5761 89.1227 24.8168 88.9117 24.8922C88.0258 25.1324 87.0348 25.3389 86.0788 25.3389C83.2108 25.3389 80.6308 23.9238 80.6308 19.947L80.6658 10.3384H78.7188C78.5079 10.3384 78.2969 10.1324 78.2969 9.92632V7.64594C78.2969 7.43991 78.5079 7.23388 78.7188 7.23388H80.6308L80.5604 3.18862C80.5604 2.98258 80.7713 2.77655 80.9823 2.77655H84.5183C84.7288 2.77655 84.9398 2.98258 84.9398 3.18862L84.9048 7.23388H88.8693C89.0803 7.23388 89.2912 7.43991 89.2912 7.64594V9.92632C89.2912 10.1324 89.0803 10.3384 88.8693 10.3384H84.8698V19.844C84.8698 21.6434 85.6498 22.1931 86.9927 22.1931C87.7377 22.1931 88.3703 22.0901 88.8693 21.9525C89.0803 21.9183 89.2912 22.0555 89.2912 22.2615V24.3359H89.2982Z" fill="#F9F6F2"/>
<path d="M104.093 25.0229C103.882 25.0229 103.671 24.8168 103.671 24.6108L103.742 22.6053C102.469 24.3359 100.592 25.3731 98.1181 25.3731C93.0917 25.3731 90.4062 21.362 90.4062 16.1766C90.4062 10.9911 93.3447 6.87708 98.2232 6.87708C100.592 6.87708 102.469 7.77662 103.707 9.50071L103.636 7.63239C103.636 7.42636 103.847 7.22033 104.058 7.22033H107.559C107.77 7.22033 107.98 7.42636 107.98 7.63239L107.805 16.0666L107.98 24.6038C107.98 24.8098 107.77 25.0158 107.559 25.0158H104.093V25.0229ZM99.2847 22.4334C102.153 22.4334 103.777 20.3591 103.812 16.245C103.847 12.1309 102.259 9.85096 99.3551 9.81635C96.2761 9.78215 94.7577 12.0967 94.7577 15.9018C94.7577 20.05 96.2762 22.4334 99.2847 22.4334Z" fill="#F9F6F2"/>
<path d="M111.789 25.0228C111.578 25.0228 111.367 24.8168 111.367 24.6108L111.543 16.0047L111.367 7.63937C111.367 7.43334 111.578 7.2273 111.789 7.2273H115.395C115.606 7.2273 115.817 7.43334 115.817 7.63937L115.641 16.0047L115.817 24.6108C115.817 24.8168 115.606 25.0228 115.395 25.0228H111.789ZM113.539 5.29018C112.379 5.29018 111.437 4.37003 111.437 3.23672C111.437 2.10346 112.386 1.18311 113.539 1.18311H113.645C114.805 1.18311 115.747 2.10346 115.747 3.23672C115.747 4.37003 114.805 5.29018 113.645 5.29018H113.539Z" fill="#F9F6F2"/>
<path d="M119.601 25.0228C119.39 25.0228 119.18 24.8168 119.18 24.6108L119.355 16.6641L119.215 7.64597C119.215 7.43994 119.426 7.23391 119.637 7.23391H122.926C123.137 7.23391 123.348 7.43994 123.348 7.64597L123.278 9.82334C124.445 8.16106 126.498 6.81525 129.218 6.81525C133.042 6.81525 135.411 9.30125 135.411 13.8002V17.461L135.552 24.6174C135.552 24.8234 135.341 25.0294 135.13 25.0294H131.629C131.418 25.0294 131.207 24.8234 131.207 24.6174L131.348 17.461V13.9032C131.348 11.3826 129.935 10.0636 127.988 10.0636C125.83 10.0636 123.847 11.8289 123.496 15.5239V17.461L123.566 24.6174C123.566 24.8234 123.355 25.0294 123.144 25.0294H119.608L119.601 25.0228Z" fill="#F9F6F2"/>
<path d="M151.671 25.0229C151.46 25.0229 151.249 24.8168 151.249 24.6108L151.32 22.6053C150.047 24.3359 148.17 25.3731 145.696 25.3731C140.67 25.3731 137.984 21.362 137.984 16.1766C137.984 10.9911 140.923 6.87708 145.801 6.87708C148.17 6.87708 150.047 7.77662 151.284 9.50071L151.214 7.63239C151.214 7.42636 151.425 7.22033 151.636 7.22033H155.137C155.348 7.22033 155.558 7.42636 155.558 7.63239L155.383 16.0666L155.558 24.6038C155.558 24.8098 155.348 25.0158 155.137 25.0158H151.671V25.0229ZM146.863 22.4334C149.731 22.4334 151.355 20.3591 151.39 16.245C151.425 12.1309 149.836 9.85096 146.933 9.81635C143.854 9.78215 142.336 12.0967 142.336 15.9018C142.336 20.05 143.854 22.4334 146.863 22.4334Z" fill="#F9F6F2"/>
<path d="M159.343 25.0228C159.133 25.0228 158.922 24.8168 158.922 24.6107L159.133 12.859L158.922 1.24493C158.922 1.03886 159.133 0.832825 159.343 0.832825H162.844C163.055 0.832825 163.266 1.03886 163.266 1.24493L163.055 12.859L163.266 24.6107C163.266 24.8168 163.055 25.0228 162.844 25.0228H159.343Z" fill="#F9F6F2"/>
<path d="M167.078 25.0228C166.867 25.0228 166.656 24.8168 166.656 24.6107L166.867 12.859L166.656 1.24493C166.656 1.03886 166.867 0.832825 167.078 0.832825H170.579C170.79 0.832825 171.001 1.03886 171.001 1.24493L170.79 12.859L171.001 24.6107C171.001 24.8168 170.79 25.0228 170.579 25.0228H167.078Z" fill="#F9F6F2"/>
</svg>
