<svg width="181" height="38" viewBox="0 0 181 38" fill="none" xmlns="http://www.w3.org/2000/svg">
<path d="M85.6149 10.2174H94.9488V15.0965H79.9297V0.24707H85.6149V10.2174Z" fill="#F9F6F2"/>
<path d="M72.7071 15.0965L71.8797 13.1024H65.1763L64.349 15.0965H58.1971L65.4521 0.24707H71.901L79.1559 15.0965H72.7071ZM66.7249 9.41127H70.31L68.528 5.14737L66.7249 9.41127Z" fill="#F9F6F2"/>
<path d="M61.7138 0.24707V5.12616H55.9862V15.0965H50.301V5.12616H44.5733V0.24707H61.7138Z" fill="#F9F6F2"/>
<path d="M29.5034 15.0965C27.9901 15.0965 26.8658 14.7358 26.1304 14.0146C25.4092 13.2933 25.0485 12.169 25.0485 10.6417V4.70189C25.0485 3.17452 25.4092 2.05021 26.1304 1.32896C26.8658 0.607699 27.9901 0.24707 29.5034 0.24707H39.2191C40.7323 0.24707 41.8496 0.607699 42.5708 1.32896C43.3062 2.05021 43.6739 3.17452 43.6739 4.70189V10.6417C43.6739 12.169 43.3062 13.2933 42.5708 14.0146C41.8496 14.7358 40.7323 15.0965 39.2191 15.0965H29.5034ZM31.7095 10.4295H37.0129C37.3806 10.4295 37.6352 10.3588 37.7766 10.2174C37.918 10.076 37.9887 9.8214 37.9887 9.4537V5.88984C37.9887 5.52214 37.918 5.26758 37.7766 5.12616C37.6352 4.98474 37.3806 4.91403 37.0129 4.91403H31.7095C31.3419 4.91403 31.0873 4.98474 30.9459 5.12616C30.8044 5.26758 30.7337 5.52214 30.7337 5.88984V9.4537C30.7337 9.8214 30.8044 10.076 30.9459 10.2174C31.0873 10.3588 31.3419 10.4295 31.7095 10.4295Z" fill="#F9F6F2"/>
<path d="M24.1553 0.24707V5.12616H18.4277V15.0965H12.7425V5.12616H7.01486V0.24707H24.1553Z" fill="#F9F6F2"/>
<path d="M160.509 15.0965H154.061L151.133 10.7265H147.994V15.0965H142.308V0.24707H155.842C157.243 0.24707 158.261 0.565272 158.897 1.20168C159.548 1.83808 159.873 2.86339 159.873 4.27762V6.27168C159.873 7.45964 159.647 8.37181 159.194 9.00822C158.756 9.63048 158.056 10.0265 157.094 10.1962L160.509 15.0965ZM147.994 4.27762V6.82323H153.382C153.693 6.82323 153.905 6.76666 154.018 6.65353C154.131 6.54039 154.188 6.32825 154.188 6.01712V5.08373C154.188 4.7726 154.131 4.56047 154.018 4.44733C153.905 4.33419 153.693 4.27762 153.382 4.27762H147.994Z" fill="#F9F6F2"/>
<path d="M135.086 15.0965L134.258 13.1024H127.555L126.728 15.0965H120.576L127.831 0.24707H134.28L141.535 15.0965H135.086ZM129.103 9.41127H132.689L130.907 5.14737L129.103 9.41127Z" fill="#F9F6F2"/>
<path d="M107.336 15.0965C105.823 15.0965 104.699 14.7358 103.963 14.0146C103.242 13.2933 102.881 12.169 102.881 10.6417V4.70189C102.881 3.17452 103.242 2.05021 103.963 1.32896C104.699 0.607699 105.823 0.24707 107.336 0.24707H116.416C117.929 0.24707 119.046 0.607699 119.767 1.32896C120.503 2.05021 120.87 3.17452 120.87 4.70189V6.73838H115.397V5.80499C115.397 5.43729 115.327 5.18273 115.185 5.04131C115.044 4.89988 114.789 4.82917 114.421 4.82917H109.542C109.175 4.82917 108.92 4.89988 108.779 5.04131C108.637 5.18273 108.567 5.43729 108.567 5.80499V9.53855C108.567 9.90625 108.637 10.1608 108.779 10.3022C108.92 10.4437 109.175 10.5144 109.542 10.5144H114.421C114.789 10.5144 115.044 10.4437 115.185 10.3022C115.327 10.1608 115.397 9.90625 115.397 9.53855V8.47788H120.87V10.6417C120.87 12.169 120.503 13.2933 119.767 14.0146C119.046 14.7358 117.929 15.0965 116.416 15.0965H107.336Z" fill="#F9F6F2"/>
<path d="M174.554 22.9414H180.027V37.7908H175.403L167.087 29.9206V37.7908H161.614V22.9414H166.451L174.554 30.5995V22.9414Z" fill="#F9F6F2"/>
<path d="M145.908 37.7908C144.395 37.7908 143.271 37.4302 142.535 36.7089C141.814 35.9877 141.453 34.8634 141.453 33.336V27.3962C141.453 25.8689 141.814 24.7446 142.535 24.0233C143.271 23.3021 144.395 22.9414 145.908 22.9414H155.624C157.137 22.9414 158.254 23.3021 158.976 24.0233C159.711 24.7446 160.079 25.8689 160.079 27.3962V33.336C160.079 34.8634 159.711 35.9877 158.976 36.7089C158.254 37.4302 157.137 37.7908 155.624 37.7908H145.908ZM148.114 33.1239H153.418C153.785 33.1239 154.04 33.0532 154.181 32.9117C154.323 32.7703 154.393 32.5158 154.393 32.1481V28.5842C154.393 28.2165 154.323 27.9619 154.181 27.8205C154.04 27.6791 153.785 27.6084 153.418 27.6084H148.114C147.747 27.6084 147.492 27.6791 147.351 27.8205C147.209 27.9619 147.138 28.2165 147.138 28.5842V32.1481C147.138 32.5158 147.209 32.7703 147.351 32.9117C147.492 33.0532 147.747 33.1239 148.114 33.1239Z" fill="#F9F6F2"/>
<path d="M134.063 22.9414H139.833V37.7908H134.063V22.9414Z" fill="#F9F6F2"/>
<path d="M132.915 22.9414V27.8205H127.188V37.7908H121.503V27.8205H115.775V22.9414H132.915Z" fill="#F9F6F2"/>
<path d="M101.389 37.7908C99.8755 37.7908 98.7512 37.4302 98.0158 36.7089C97.2945 35.9877 96.9339 34.8634 96.9339 33.336V27.3962C96.9339 25.8689 97.2945 24.7446 98.0158 24.0233C98.7512 23.3021 99.8755 22.9414 101.389 22.9414H110.468C111.981 22.9414 113.099 23.3021 113.82 24.0233C114.555 24.7446 114.923 25.8689 114.923 27.3962V29.4327H109.45V28.4993C109.45 28.1316 109.379 27.8771 109.238 27.7357C109.096 27.5942 108.842 27.5235 108.474 27.5235H103.595C103.227 27.5235 102.973 27.5942 102.831 27.7357C102.69 27.8771 102.619 28.1316 102.619 28.4993V32.2329C102.619 32.6006 102.69 32.8552 102.831 32.9966C102.973 33.138 103.227 33.2087 103.595 33.2087H108.474C108.842 33.2087 109.096 33.138 109.238 32.9966C109.379 32.8552 109.45 32.6006 109.45 32.2329V31.1722H114.923V33.336C114.923 34.8634 114.555 35.9877 113.82 36.7089C113.099 37.4302 111.981 37.7908 110.468 37.7908H101.389Z" fill="#F9F6F2"/>
<path d="M85.4287 33.5694H95.8233V37.7908H79.7435V22.9414H95.6112V27.1629H85.4287V28.5418H94.7626V32.0208H85.4287V33.5694Z" fill="#F9F6F2"/>
<path d="M78.6809 27.375H68.7106V29.1145H77.8324V33.1027H68.7106V37.7908H63.0254V22.9414H78.6809V27.375Z" fill="#F9F6F2"/>
<path d="M62.0432 37.7908H55.5943L52.6669 33.4209H49.5273V37.7908H43.8421V22.9414H57.3763C58.7764 22.9414 59.7946 23.2596 60.431 23.896C61.0816 24.5324 61.4068 25.5578 61.4068 26.972V28.966C61.4068 30.154 61.1805 31.0662 60.728 31.7026C60.2896 32.3248 59.5895 32.7208 58.6279 32.8905L62.0432 37.7908ZM49.5273 26.972V29.5176H54.9155C55.2266 29.5176 55.4388 29.461 55.5519 29.3479C55.6651 29.2347 55.7216 29.0226 55.7216 28.7115V27.7781C55.7216 27.467 55.6651 27.2548 55.5519 27.1417C55.4388 27.0285 55.2266 26.972 54.9155 26.972H49.5273Z" fill="#F9F6F2"/>
<path d="M32.1671 33.5694H42.5617V37.7908H26.4819V22.9414H42.3496V27.1629H32.1671V28.5418H41.501V32.0208H32.1671V33.5694Z" fill="#F9F6F2"/>
<path d="M7.65087 37.7908V22.9414H21.185C22.5851 22.9414 23.6034 23.2596 24.2398 23.896C24.8903 24.5324 25.2156 25.5578 25.2156 26.972V29.9419C25.2156 31.3561 24.8903 32.3814 24.2398 33.0178C23.6034 33.6542 22.5851 33.9724 21.185 33.9724H13.3361V37.7908H7.65087ZM13.3361 29.9419H18.7243C19.0354 29.9419 19.2475 29.8853 19.3607 29.7722C19.4738 29.659 19.5304 29.4469 19.5304 29.1358V27.9902C19.5304 27.6791 19.4738 27.467 19.3607 27.3538C19.2475 27.2407 19.0354 27.1841 18.7243 27.1841H13.3361V29.9419Z" fill="#F9F6F2"/>
<path d="M4.56875 25.8087L4.95387 20.3456L0 18.0905L6.14344 19.6652L4.56875 25.8087Z" fill="#F9F6F2"/>
<path d="M7.71813 13.5218L5.42785 18.4965L0 18.0905L6.14344 19.6652L7.71813 13.5218Z" fill="#F9F6F2"/>
<path d="M4.56875 25.8087L6.85903 20.834L12.2869 21.2399L6.14344 19.6652L4.56875 25.8087Z" fill="#F9F6F2"/>
<path d="M7.71813 13.5218L7.333 18.9848L12.2869 21.2399L6.14344 19.6652L7.71813 13.5218Z" fill="#F9F6F2"/>
<path d="M161.82 10.8421L163.202 16.1415L158.747 19.2681L164.497 16.5918L161.82 10.8421Z" fill="#F9F6F2"/>
<path d="M167.173 22.3415L164.008 17.8721L158.747 19.2681L164.497 16.5918L167.173 22.3415Z" fill="#F9F6F2"/>
<path d="M161.82 10.8421L164.985 15.3115L170.246 13.9155L164.497 16.5918L161.82 10.8421Z" fill="#F9F6F2"/>
<path d="M167.173 22.3415L165.791 17.0422L170.246 13.9155L164.497 16.5918L167.173 22.3415Z" fill="#F9F6F2"/>
</svg>
