<svg width="72" height="74" viewBox="0 0 72 74" fill="none" xmlns="http://www.w3.org/2000/svg">
<path d="M15.82 18.4996L13.615 16.113L14.6929 15.1268C16.1688 13.7782 17.4808 16.4495 18.0848 16.4314L19.8862 14.7825L19.8628 14.7566L21.7734 13.8455L21.4716 11.8394L24.3637 10.4597L25.7484 11.9481L27.8727 10.936L20.7842 4.0014L18.6599 5.01352L19.6311 14.6686C18.9671 14.3891 17.2936 11.8187 15.4711 12.9861L15.4531 12.968C16.1352 11.9921 16.1428 10.9231 15.2991 10.0119C14.1043 8.71766 12.5321 8.86521 10.9988 10.263L7.75 13.2294L14.0836 20.0837L15.82 18.497V18.4996ZM20.667 6.43719L23.1168 9.07745L21.1825 10.0016L20.6437 6.44752L20.667 6.43719ZM12.3109 14.7048L10.788 13.056L11.9646 11.9817C12.6597 11.3476 13.2558 11.2622 13.7868 11.8368C14.318 12.4114 14.1824 12.9965 13.4875 13.6306L12.3109 14.7048Z" fill="#F9F6F2"/>
<path d="M31.5798 10.6874C34.1099 10.2706 35.2033 8.55963 35.0497 6.36716L32.7252 6.75026C32.7409 7.80121 32.3996 8.6114 31.1608 8.81849C29.6248 9.06957 28.9113 7.97462 28.6226 6.24292C28.3334 4.52156 28.6536 3.2558 30.1896 3.00211C31.4159 2.79763 32.0041 3.45512 32.3399 4.42839L34.6644 4.04529C34.0893 1.9512 32.4962 0.682843 29.9786 1.09957C27.0605 1.58104 25.8369 3.86668 26.2976 6.62862C26.761 9.4009 28.6616 11.1714 31.5798 10.69V10.6874Z" fill="#F9F6F2"/>
<path d="M38.5146 7.7443L39.59 6.81247L41.5472 10.6305L44.2754 10.9929L41.3052 5.34479L45.3818 1.74935L42.6563 1.38695L38.9232 4.70024L39.4234 0.957252L37.0881 0.649231L35.8516 9.87467L38.1869 10.1853L38.5146 7.7443Z" fill="#F9F6F2"/>
<path d="M50.818 14.0473L51.5988 12.3001L47.1994 10.3561L47.9803 8.60625L51.7106 10.2552L52.4942 8.50792L48.7616 6.85903L49.4382 5.34995L53.7649 7.26026L54.5484 5.51303L48.0665 2.65015L44.2656 11.1508L50.818 14.0473Z" fill="#F9F6F2"/>
<path d="M52.9423 15.6211L56.8393 11.3139L56.8599 11.332L54.257 16.7963L55.4828 17.8912L60.6738 14.7436L60.6945 14.7617L56.7975 19.069L58.4508 20.547L64.7113 13.628L62.5713 11.7125L57.1464 14.8472L57.1284 14.829L59.6896 9.13695L57.55 7.22144L51.2891 14.1405L52.9423 15.6211Z" fill="#F9F6F2"/>
<path d="M25.8047 66.0891L27.8378 66.5965L26.4477 72.1175L28.2073 72.5553L29.5975 67.0339L31.6203 67.5385L31.9822 66.1098L26.1666 64.6604L25.8047 66.0891Z" fill="#F9F6F2"/>
<path d="M36.5402 66.2391L33.0442 66.2212L33.0078 73.3811L34.8196 73.3887L34.8326 70.7952L36.5141 70.8029C38.0138 70.8105 38.9563 70.0342 38.9639 68.5327C38.9716 67.0312 38.0399 66.2445 36.5379 66.2369L36.5402 66.2391ZM36.1419 69.3324L34.8429 69.3247L34.851 67.7016L36.15 67.7097C36.7719 67.7124 37.1549 67.9243 37.1522 68.5251C37.1522 69.1254 36.7669 69.3351 36.1419 69.3324Z" fill="#F9F6F2"/>
<path d="M45.019 69.4904C45.0864 70.2982 44.8677 70.9349 43.9279 71.1576C42.7618 71.4319 42.1552 70.6296 41.8405 69.3144C41.5307 68.0073 41.7076 67.0186 42.8736 66.7438C43.8058 66.5238 44.2898 66.9953 44.5996 67.7249L46.3647 67.3082C45.8129 65.7295 44.5215 64.8414 42.611 65.2917C40.3983 65.8148 39.5806 67.6347 40.0781 69.7284C40.5806 71.8329 42.1346 73.091 44.3473 72.5679C46.2686 72.1153 47.018 70.7459 46.7841 69.0711L45.0217 69.4877L45.019 69.4904Z" fill="#F9F6F2"/>
<path d="M53.7732 20.5315C49.4389 16.2217 43.9147 13.8144 38.2505 13.3044C38.2136 19.1234 40.4187 24.9527 44.8729 29.3818C49.3271 33.8104 55.1893 36.0029 61.0413 35.967C60.5285 30.3341 58.1074 24.844 53.7732 20.5315Z" fill="#F9F6F2"/>
<path d="M10.8984 40.4966C11.4113 46.1294 13.8295 51.6195 18.1665 55.9317C22.5007 60.2418 28.0249 62.6489 33.6896 63.159C33.7287 57.3403 31.5209 51.5108 27.0672 47.0818C22.613 42.6527 16.7503 40.4602 10.8984 40.4966Z" fill="#F9F6F2"/>
<path d="M53.7733 55.9317C57.9881 51.7411 60.3881 46.4347 60.9893 40.9703C53.8671 40.9936 46.7341 38.3121 41.3119 32.92C35.8892 27.5283 33.1925 20.4358 33.2158 13.3536C27.7204 13.9515 22.3839 16.3407 18.1691 20.5289C13.9547 24.7197 11.5544 30.0234 10.9531 35.4905C18.0757 35.4672 25.2082 38.1487 30.6309 43.5408C36.0531 48.9325 38.7503 56.0251 38.7269 63.1073C44.2219 62.5092 49.5589 60.12 53.7733 55.9317Z" fill="#F9F6F2"/>
<path d="M9.25905 24.1994L4.80753 21.8464C-2.24196 35.0842 -0.156763 51.8758 11.0501 63.009C13.971 65.9131 17.282 68.2067 20.8067 69.8788L22.9624 65.3438C19.9428 63.9227 17.1127 61.9605 14.614 59.4757C5.0262 49.9446 3.2456 35.5449 9.25645 24.1994H9.25905Z" fill="#F9F6F2"/>
<path d="M67.0975 21.7662L62.646 24.1295C68.7085 35.4851 66.9359 49.9212 57.3302 59.4757C54.8023 61.9991 51.9232 63.9716 48.8516 65.403L51.0068 69.938C54.5809 68.2659 57.9341 65.9517 60.8967 63.0089C72.1242 51.8448 74.199 35.0141 67.0997 21.7662H67.0975Z" fill="#F9F6F2"/>
</svg>
